<?xml version="1.0" standalone="no"?>
<!DOCTYPE svg PUBLIC "-//W3C//DTD SVG 20010904//EN"
 "http://www.w3.org/TR/2001/REC-SVG-20010904/DTD/svg10.dtd">
<svg version="1.0" xmlns="http://www.w3.org/2000/svg"
 width="340.000000pt" height="340.000000pt" viewBox="0 0 340.000000 340.000000"
 preserveAspectRatio="xMidYMid meet">

<g transform="translate(0.000000,340.000000) scale(0.100000,-0.100000)"
fill="#000000" stroke="none">
<path d="M546 2957 c-15 -11 -18 -55 -31 -436 l-14 -423 -40 -61 c-56 -87 -97
-179 -121 -271 -28 -109 -28 -283 0 -392 152 -594 942 -970 1711 -814 141 29
247 64 375 124 144 69 248 140 357 245 290 280 372 654 216 987 l-32 69 -16
476 c-16 484 -19 509 -55 509 -6 0 -137 -105 -290 -234 l-278 -233 -87 28
c-331 106 -711 112 -1041 15 l-84 -25 -45 37 c-25 20 -146 121 -269 225 -123
103 -227 187 -231 187 -4 0 -15 -6 -25 -13z m613 -1253 c35 -45 26 -95 -20
-119 -40 -21 -57 -19 -90 14 -36 36 -37 73 -4 106 34 35 86 34 114 -1z m1186
1 c27 -26 32 -70 12 -96 -15 -20 -51 -39 -72 -39 -26 0 -75 55 -75 85 0 36 41
75 80 75 19 0 40 -9 55 -25z m-461 -231 c9 -8 16 -20 16 -26 0 -21 -184 -268
-199 -268 -25 0 -32 8 -119 131 -124 176 -122 179 114 179 144 0 175 -3 188
-16z m-557 -190 c3 -8 2 -19 -3 -24 -5 -5 -126 -10 -269 -12 -247 -3 -260 -2
-263 16 -2 10 2 22 10 27 7 5 127 9 266 9 220 0 253 -2 259 -16z m1268 2 c17
-12 18 -16 5 -31 -14 -16 -34 -17 -270 -11 -140 4 -259 11 -264 16 -5 5 -6 16
-3 24 6 14 39 16 260 16 200 0 257 -3 272 -14z m-1267 -119 c25 -30 -7 -39
-253 -74 -136 -19 -254 -32 -261 -29 -17 7 -18 46 -1 47 6 0 113 15 237 33
266 40 265 40 278 23z m1006 -22 c143 -20 253 -40 257 -47 10 -16 -1 -38 -20
-38 -16 0 -414 54 -478 65 -31 6 -45 30 -26 48 8 9 -15 12 267 -28z m-986
-112 c3 -18 -4 -24 -40 -33 -24 -7 -132 -36 -241 -66 -109 -30 -205 -54 -213
-54 -18 0 -30 28 -18 40 12 12 474 140 494 137 8 -1 16 -12 18 -24z m964 -39
c134 -37 246 -71 250 -77 10 -16 -2 -37 -21 -37 -29 0 -482 127 -493 138 -12
12 -4 42 11 42 5 0 119 -30 253 -66z"/>
</g>
</svg>
