<svg xmlns="http://www.w3.org/2000/svg" viewBox="0 0 500 500"><g id="freepik--Floor--inject-1--inject-23"><path d="M89.89,428.32c88.43,42.85,231.8,42.85,320.22,0s88.43-112.33,0-155.18-231.8-42.85-320.22,0S1.46,385.47,89.89,428.32Z" style="fill:#f5f5f5"></path></g><g id="freepik--Cloud--inject-1--inject-23"><path d="M408.15,90.82l-2.57,1V86.16c0-4.48-3.57-5.55-7.45-3.31h0a15.52,15.52,0,0,0-7,12.16v.82a3.76,3.76,0,0,0-3.26.5h0a11.17,11.17,0,0,0-5.05,8.75v.37l-3.57,2.07a7.35,7.35,0,0,0-3.33,5.76c0,2.12,1.49,3,3.33,1.92l28.92-16.7a7.36,7.36,0,0,0,3.32-5.76C411.47,90.62,410,89.76,408.15,90.82Z" style="fill:#f0f0f0"></path></g><g id="freepik--Device--inject-1--inject-23"><ellipse cx="248.08" cy="386.16" rx="63.12" ry="30.08" style="fill:#ebebeb"></ellipse><path d="M321.15,131.78c4.75-4.9,11.5-8.33,16.15-4.77S342,139.34,339,143.69c-4.49,6.67-17.88,17.84-17.88,17.84Z" style="fill:#ffa8a7"></path><path d="M223.32,205.19s10-12.21,11.29-18.73V261H223.32Z" style="fill:#f28f8f"></path><path d="M290.6,326.18c.45-10.1,8.35-14,15.89-28,8.93-16.57,9.92-34.61,10.9-50.19H230.84v78.21Z" style="fill:#ffa8a7"></path><path d="M245.89,302.28l70.49-40.7c.45-4.67.73-9.24,1-13.61h-6.25l-72.77,37.18Z" style="fill:#f28f8f"></path><path d="M235.56,300.66l-1.91-1.1a6.23,6.23,0,0,1-2.81-4.87V127.38a6.2,6.2,0,0,1,2.81-4.86L310.82,78a6.23,6.23,0,0,1,5.61,0l1.91,1.11a6.2,6.2,0,0,1,2.81,4.86V251.24a6.23,6.23,0,0,1-2.81,4.87l-77.16,44.55A6.25,6.25,0,0,1,235.56,300.66Z" style="fill:#455a64"></path><path d="M242.13,130.65l-10.47-6a5.82,5.82,0,0,0-.82,2.77V294.69a6.23,6.23,0,0,0,2.81,4.87l1.91,1.1a6.25,6.25,0,0,0,5.62,0l.95-.55Z" style="fill:#263238"></path><path d="M238.37,131.72V299c0,1.79,1.25,2.51,2.81,1.62l77.16-44.55a6.23,6.23,0,0,0,2.81-4.87V83.93c0-1.79-1.26-2.52-2.81-1.62l-77.16,44.55A6.19,6.19,0,0,0,238.37,131.72Z" style="fill:#37474f"></path><path d="M244.54,142.3,315,101.63c1.33-.77,2.41-.15,2.41,1.39V236.5a5.34,5.34,0,0,1-2.41,4.17l-70.44,40.67c-1.33.77-2.41.14-2.41-1.39V146.47A5.32,5.32,0,0,1,244.54,142.3Z" style="fill:#fff"></path><path d="M279.76,108.93c1-.6,1.88-.11,1.88,1.09a4.14,4.14,0,0,1-1.88,3.25c-1,.6-1.88.12-1.88-1.08A4.16,4.16,0,0,1,279.76,108.93Z" style="fill:#263238"></path><path d="M274.33,118.33c3.82-2.12,10.64-6.17,14.41-8.39.64-.38,1.15-.12,1.15.58a2.5,2.5,0,0,1-1.16,1.93l-14.43,8.34c-.65.37-1.17.11-1.17-.59A2.39,2.39,0,0,1,274.33,118.33Z" style="fill:#263238"></path><path d="M270.68,120.44c.58-.34,1.06-.07,1.06.61a2.36,2.36,0,0,1-1.06,1.83c-.58.33-1.06.06-1.06-.61A2.33,2.33,0,0,1,270.68,120.44Z" style="fill:#263238"></path><path d="M279.76,265.35c2.08-1.2,3.76-.23,3.76,2.17a8.31,8.31,0,0,1-3.76,6.52c-2.08,1.2-3.76.22-3.76-2.17A8.31,8.31,0,0,1,279.76,265.35Z" style="fill:#263238"></path><path d="M237.28,180.62c2.41,1.12,5,8.41,4.2,15.46-.58,5-4.2,13.39-7.09,16.85s-7.2,9.65-7.31,14.06-.32,16.82,5.48,26.5,18.73,31.41,15.22,53.13H204.5a75.28,75.28,0,0,0-3.21-21.4c-2.87-8.79-5.77-19-6.1-27.53s6.13-40.93,8-45.78c2.37-6.17,9.12-10.21,16.37-17.27C227.78,186.62,231.21,177.8,237.28,180.62Z" style="fill:#ffa8a7"></path><path d="M214.52,395.35c18.37,10.6,48.15,10.6,66.52,0s18.36-27.8,0-38.41-48.15-10.6-66.52,0S196.15,384.74,214.52,395.35Z" style="fill:#ffa8a7"></path><path d="M200.74,376.14c0-5.88,2.71-37.53,3.18-45.28.58-9.62.58-19.06.58-24.24h86.55a249.53,249.53,0,0,0,0,30.42c1.07,14.92,3.76,28.24,3.76,39.07Z" style="fill:#ffa8a7"></path><path d="M229,199.09c.3-.51,6.1-7.93,7.53-10.87s1.23-6.26-2.76-7.95c-4.17,1.21-7.68,8-14.18,14.37A10.83,10.83,0,0,0,229,199.09Z" style="fill:#fff;opacity:0.2"></path><path d="M292.56,318.79h0c-3.15,5.28-11.55,17.43-34.16,19.87,0,0,19.48,2.57,32.22-11.24h0l0-1.24A17.65,17.65,0,0,1,292.56,318.79Z" style="fill:#f28f8f"></path><path d="M333.89,235c-2.36,4-12.74,11.47-12.74,11.47V223.25Z" style="fill:#f28f8f"></path><path d="M329.06,214.82c-5.73-.52-10,2.2-10,7.13v8.84a7.74,7.74,0,0,0,8.8,7.7l.23,0c7.53-1.22,7.43-8.1,7.52-11.71S334.16,215.29,329.06,214.82Z" style="fill:#ffa8a7"></path><path d="M334.58,177.71c-2.48,4.26-13.43,12.1-13.43,12.1V165.37Z" style="fill:#f28f8f"></path><path d="M329.49,156.48c-6-.55-9.21,2.1-10.56,7.52a26.59,26.59,0,0,0,0,9.32c.57,4,4.38,8.86,9.29,8.13l.24,0c7.94-1.29,8.84-5.56,8.84-12.44S334.87,157,329.49,156.48Z" style="fill:#ffa8a7"></path><path d="M335.11,199.79c-3.39,6-14,13-14,13V189.92Z" style="fill:#f28f8f"></path><path d="M329.36,180.69c-5.52-.51-8.42,1.91-9.65,6.86a24,24,0,0,0,0,8.52c.51,3.68,4,8.08,8.48,7.42l.22,0c7.25-1.18,8.07-5.07,8.07-11.36S334.27,181.13,329.36,180.69Z" style="fill:#ffa8a7"></path><path d="M221.09,193.08h0q-.74.78-1.53,1.56a10.83,10.83,0,0,0,9.41,4.45A13,13,0,0,0,221.09,193.08Z" style="fill:#f28f8f"></path><path d="M248.59,149.86v-1.18a.9.9,0,0,1,.4-.7l.11-.06c.23-.13.4,0,.4.23v1.18a.87.87,0,0,1-.4.7l-.11.06C248.77,150.22,248.59,150.12,248.59,149.86Z" style="fill:#F9557B"></path><path d="M250.42,148.81v-2.05a.88.88,0,0,1,.4-.69l.11-.07c.22-.13.4,0,.4.23v2.05a.88.88,0,0,1-.4.69l-.11.07C250.6,149.17,250.42,149.06,250.42,148.81Z" style="fill:#F9557B"></path><path d="M252.25,147.75v-2.91a.89.89,0,0,1,.4-.69l.11-.06c.22-.13.4,0,.4.23v2.9a.9.9,0,0,1-.4.7l-.11.06C252.43,148.11,252.25,148,252.25,147.75Z" style="fill:#F9557B"></path><path d="M254.07,146.7v-5a.88.88,0,0,1,.41-.7l.11-.06c.22-.13.4,0,.4.23v5a.89.89,0,0,1-.4.69l-.12.07C254.25,147.05,254.07,147,254.07,146.7Z" style="fill:#F9557B"></path><path d="M259,144.18s0-.06,0-.13v-.74l-2.05,1.18c-.12.07-.17,0-.17-.06v-.26a.61.61,0,0,1,0-.15.64.64,0,0,1,.07-.16L259,140a.76.76,0,0,1,.1-.15.57.57,0,0,1,.14-.11l.29-.16c.08,0,.15-.07.19,0s.05.06.05.14v2.58l.46-.27a.24.24,0,0,1,.18-.05s.05.07.05.15v.18a.36.36,0,0,1-.05.19.57.57,0,0,1-.18.16l-.46.26v.74a.42.42,0,0,1-.05.2.64.64,0,0,1-.19.16l-.35.2C259.12,144.18,259.06,144.2,259,144.18Zm.08-1.58v-1.83l-1.49,2.69Z" style="fill:#F9557B"></path><path d="M261.45,142.33q-.6-.24-.6-1.35a3.7,3.7,0,0,1,.61-2,4.84,4.84,0,0,1,1.69-1.57A5.4,5.4,0,0,1,264,137a1.64,1.64,0,0,1,.64-.1s.06,0,.06,0a.23.23,0,0,1,0,.09l-.19.43a.17.17,0,0,1-.08.1l-.08,0a2.42,2.42,0,0,0-1.05.36,3.23,3.23,0,0,0-1.15,1.08,2.74,2.74,0,0,0-.42,1.51c0,.57.13.91.4,1a1.3,1.3,0,0,0,1.12-.23q.26-.15.51-.33a5.24,5.24,0,0,0,.4-.35v-1.2l-.86.49c-.08.05-.14.07-.18.05s-.05-.06-.05-.15v-.16a.43.43,0,0,1,.05-.21.71.71,0,0,1,.18-.15l1.37-.79c.09,0,.16-.07.2,0s.06.08.06.18v1.71a.34.34,0,0,1,0,.15.41.41,0,0,1-.08.14,6.1,6.1,0,0,1-1.62,1.31A2,2,0,0,1,261.45,142.33Z" style="fill:#F9557B"></path><path d="M278.12,130.09v2.79c0,.21.15.3.33.19l2.43-1.39a.73.73,0,0,0,.32-.57v-2.8c0-.21-.14-.29-.32-.19l-2.43,1.4A.74.74,0,0,0,278.12,130.09Z" style="fill:#F9557B"></path><path d="M280.6,127.73a.65.65,0,0,0-1-.6,1.82,1.82,0,0,0-.83,1.45v1h.41v-1a1.4,1.4,0,0,1,.63-1.09.31.31,0,0,1,.31,0c.07,0,.11.14.11.29v1h.41Z" style="fill:#F9557B"></path><path d="M311.35,110.07a.73.73,0,0,0-.71.05l-5.37,3.1a1.81,1.81,0,0,0-.82,1.43v2.26a.7.7,0,0,0,.31.64.54.54,0,0,0,.28.08.92.92,0,0,0,.43-.13l5.37-3.1a1.8,1.8,0,0,0,.82-1.43v-2.26A.71.71,0,0,0,311.35,110.07Zm-6.4,7.14a.34.34,0,0,1-.11-.3v-2.26a1.43,1.43,0,0,1,.63-1.09l5.37-3.1a.55.55,0,0,1,.22-.07l.09,0a.34.34,0,0,1,.12.3V113a1.41,1.41,0,0,1-.63,1.09l-5.37,3.1A.33.33,0,0,1,305,117.21Z" style="fill:#F9557B"></path><path d="M305.06,117s0-.05,0-.1v-2.26a1.19,1.19,0,0,1,.52-.89l5.37-3.1a.2.2,0,0,1,.09,0V113a1.21,1.21,0,0,1-.51.9l-5.37,3.1Z" style="fill:#F9557B"></path><path d="M311.93,110.58c.2-.12.36.16.36.62v.42a1.43,1.43,0,0,1-.37,1.07l-.36.23v-2.13Z" style="fill:#F9557B"></path><path d="M262.27,167.51a2.66,2.66,0,0,0,2.24-.38c1.75-1,3.17-2.95,3.28-6.36a9.67,9.67,0,0,1-3,3.17c-2.39,1.38-4.06,1.12-4.06-1.4s2-5.1,4.39-6.48c2.71-1.57,5-1.09,5,3a11.24,11.24,0,0,1-5.47,9.81c-1.67,1-2.9,1.06-3.73.79Zm5.46-8.27c-.27-2-1.27-2.31-2.63-1.52A4.2,4.2,0,0,0,263,161.2c0,1.42.81,1.69,2.21.88A7,7,0,0,0,267.73,159.24Z" style="fill:#F9557B"></path><path d="M274.15,153.9c.92-.53,1.62-.31,1.62.54a3.15,3.15,0,0,1-1.62,2.42c-.92.53-1.65.32-1.65-.53A3.21,3.21,0,0,1,274.15,153.9Zm0,6.49c.92-.53,1.62-.31,1.62.54a3.15,3.15,0,0,1-1.62,2.42c-.92.53-1.65.32-1.65-.53A3.21,3.21,0,0,1,274.15,160.39Z" style="fill:#F9557B"></path><path d="M278,154.79a9.93,9.93,0,0,1,4.73-8.94c2.89-1.67,4.73-.59,4.73,3.47s-1.84,7.39-4.73,9.06S278,158.87,278,154.79Zm7.05-4.07c0-3.42-1-3.95-2.32-3.16s-2.32,2.42-2.32,5.84,1,4,2.32,3.27S285.08,154.13,285.08,150.72Z" style="fill:#F9557B"></path><path d="M289.27,148.3a9.93,9.93,0,0,1,4.73-8.94c2.9-1.67,4.74-.59,4.74,3.47s-1.84,7.39-4.74,9.06S289.27,152.38,289.27,148.3Zm7.06-4.07c0-3.42-1-3.95-2.33-3.16s-2.32,2.42-2.32,5.84,1,4,2.32,3.27S296.33,147.64,296.33,144.23Z" style="fill:#F9557B"></path><path d="M251.47,192.84,308,160.18c1.2-.69,2.17-.13,2.17,1.25v16.7a4.76,4.76,0,0,1-2.17,3.74l-56.56,32.67c-1.2.69-2.17.13-2.17-1.25v-16.7A4.8,4.8,0,0,1,251.47,192.84Z" style="fill:#F9557B;opacity:0.8"></path><path d="M255.56,194.82l7.28-4.2c1.1-.64,2-.12,2,1.16v8.4a4.42,4.42,0,0,1-2,3.47l-7.28,4.21c-1.11.64-2,.12-2-1.16v-8.4A4.44,4.44,0,0,1,255.56,194.82Z" style="fill:#f0f0f0"></path><path d="M269.81,186.59,290,175c.66-.38,1.2-.1,1.2.63a2.62,2.62,0,0,1-1.2,2l-20.17,11.64c-.67.39-1.21.1-1.21-.63A2.61,2.61,0,0,1,269.81,186.59Z" style="fill:#f0f0f0"></path><path d="M269.81,191.79,305,171.41c.66-.39,1.2-.1,1.2.63a2.61,2.61,0,0,1-1.2,2l-35.22,20.38c-.67.39-1.21.1-1.21-.63A2.59,2.59,0,0,1,269.81,191.79Z" style="fill:#f0f0f0"></path><path d="M269.81,197,305,176.6c.66-.38,1.2-.1,1.2.63a2.62,2.62,0,0,1-1.2,2l-35.22,20.38c-.67.38-1.21.1-1.21-.64A2.61,2.61,0,0,1,269.81,197Z" style="fill:#f0f0f0"></path><path d="M251.47,218.84,308,186.18c1.2-.69,2.17-.13,2.17,1.25v16.7a4.78,4.78,0,0,1-2.17,3.75l-56.56,32.66c-1.2.69-2.17.13-2.17-1.25v-16.7A4.8,4.8,0,0,1,251.47,218.84Z" style="fill:#F9557B;opacity:0.8"></path><path d="M255.56,220.82l7.28-4.2c1.1-.64,2-.12,2,1.16v8.4a4.46,4.46,0,0,1-2,3.48l-7.28,4.2c-1.11.64-2,.12-2-1.16v-8.4A4.44,4.44,0,0,1,255.56,220.82Z" style="fill:#f0f0f0"></path><path d="M269.81,212.6,290,201c.66-.38,1.2-.1,1.2.64a2.62,2.62,0,0,1-1.2,2l-20.17,11.64c-.67.39-1.21.1-1.21-.63A2.59,2.59,0,0,1,269.81,212.6Z" style="fill:#f0f0f0"></path><path d="M269.81,217.79,305,197.41c.66-.39,1.2-.1,1.2.63a2.59,2.59,0,0,1-1.2,2l-35.22,20.39c-.67.38-1.21.1-1.21-.64A2.59,2.59,0,0,1,269.81,217.79Z" style="fill:#f0f0f0"></path><path d="M269.81,223,305,202.6c.66-.38,1.2-.1,1.2.63a2.62,2.62,0,0,1-1.2,2l-35.22,20.38c-.67.38-1.21.1-1.21-.63A2.61,2.61,0,0,1,269.81,223Z" style="fill:#f0f0f0"></path><path d="M251.47,244.84,308,212.18c1.2-.69,2.17-.13,2.17,1.25v16.7a4.78,4.78,0,0,1-2.17,3.75l-56.56,32.66c-1.2.69-2.17.13-2.17-1.25v-16.7A4.8,4.8,0,0,1,251.47,244.84Z" style="fill:#F9557B;opacity:0.8"></path><path d="M255.56,246.83l7.28-4.21c1.1-.64,2-.12,2,1.16v8.41a4.46,4.46,0,0,1-2,3.47l-7.28,4.2c-1.11.64-2,.12-2-1.16v-8.4A4.42,4.42,0,0,1,255.56,246.83Z" style="fill:#f0f0f0"></path><path d="M269.81,238.6,290,227c.66-.38,1.2-.1,1.2.64a2.61,2.61,0,0,1-1.2,2l-20.17,11.65c-.67.38-1.21.1-1.21-.64A2.59,2.59,0,0,1,269.81,238.6Z" style="fill:#f0f0f0"></path><path d="M269.81,243.79,305,223.41c.66-.38,1.2-.1,1.2.63a2.62,2.62,0,0,1-1.2,2l-35.22,20.38c-.67.38-1.21.1-1.21-.63A2.61,2.61,0,0,1,269.81,243.79Z" style="fill:#f0f0f0"></path><path d="M269.81,249,305,228.6c.66-.38,1.2-.1,1.2.64a2.61,2.61,0,0,1-1.2,2l-35.22,20.38c-.67.39-1.21.1-1.21-.63A2.59,2.59,0,0,1,269.81,249Z" style="fill:#f0f0f0"></path></g></svg>