<?xml version="1.0" standalone="no"?>
<!DOCTYPE svg PUBLIC "-//W3C//DTD SVG 20010904//EN"
 "http://www.w3.org/TR/2001/REC-SVG-20010904/DTD/svg10.dtd">
<svg version="1.0" xmlns="http://www.w3.org/2000/svg"
 width="360.000000pt" height="360.000000pt" viewBox="0 0 360.000000 360.000000"
 preserveAspectRatio="xMidYMid meet">

<g transform="translate(0.000000,360.000000) scale(0.100000,-0.100000)"
fill="#000000" stroke="none">
<path d="M1600 3049 c-451 -71 -851 -408 -993 -837 -49 -146 -67 -259 -67
-416 0 -349 121 -640 369 -887 147 -146 261 -221 451 -295 265 -102 599 -104
869 -4 358 132 637 412 765 768 96 267 92 601 -8 862 -74 190 -149 304 -295
451 -190 190 -414 309 -667 353 -97 17 -330 20 -424 5z m397 -54 c307 -50 590
-221 776 -470 77 -102 168 -292 204 -420 25 -94 27 -113 27 -305 0 -193 -2
-211 -28 -305 -35 -128 -93 -258 -164 -365 -64 -98 -229 -268 -317 -327 -82
-55 -193 -114 -199 -105 -2 4 -14 43 -26 87 -42 156 -82 243 -166 365 -21 31
-32 56 -26 58 34 11 133 86 174 130 25 29 50 52 55 52 8 0 20 -14 62 -70 22
-29 36 -22 28 12 -7 25 -36 61 -63 76 -15 8 -15 11 0 40 9 18 21 32 27 32 10
0 93 -42 121 -62 22 -15 36 -3 22 20 -8 13 -72 51 -132 78 -2 1 4 29 12 62 29
110 20 222 -25 339 -20 50 -20 53 -4 110 21 68 31 217 20 298 -16 128 -71 119
-241 -38 l-71 -66 -49 19 c-126 47 -285 47 -422 0 l-58 -20 -105 68 c-129 85
-164 103 -183 96 -23 -9 -24 -20 -15 -174 9 -155 16 -209 30 -226 5 -6 -2 -36
-18 -74 -48 -121 -52 -196 -18 -365 6 -30 4 -32 -64 -70 -39 -21 -71 -44 -71
-52 0 -21 24 -15 90 22 34 19 65 35 70 35 4 0 13 -14 20 -30 11 -26 10 -33 -2
-48 -31 -35 -50 -84 -38 -96 12 -12 20 -4 52 54 l18 31 68 -68 c43 -43 96 -82
143 -107 91 -48 85 -43 67 -63 -29 -35 -127 -219 -158 -298 -18 -44 -34 -106
-37 -137 -3 -32 -7 -58 -10 -58 -16 0 -221 111 -273 147 -91 64 -246 224 -304
312 -139 213 -206 435 -206 684 0 520 333 981 827 1147 174 58 394 75 580 45z
m-295 -1440 c15 -33 58 -31 73 3 13 29 32 28 57 -3 24 -31 35 -31 64 -4 23 21
54 20 54 -1 0 -6 -11 -22 -25 -35 -26 -27 -72 -33 -106 -15 -15 8 -23 7 -35
-5 -38 -38 -124 3 -124 60 0 33 27 33 42 0z"/>
</g>
</svg>
