<svg xmlns="http://www.w3.org/2000/svg" xmlns:xlink="http://www.w3.org/1999/xlink" viewBox="0 0 750 500"><defs><clipPath id="freepik--clip-path--inject-91"><path d="M611.87,270.07s-4.18,5.61,0,21.28H681.7s-6.27-10.83,0-21.28Z" style="fill:#fff"></path></clipPath><clipPath id="freepik--clip-path-2--inject-91"><path d="M612.8,325.32a55.08,55.08,0,0,0,0,28.55h68.9s-6.27-18.1,0-28.55Z" style="fill:#fff"></path></clipPath><clipPath id="freepik--clip-path-3--inject-91"><path d="M681.7,291.85H611.87a.52.52,0,0,1-.49-.37c-4.19-15.73-.09-21.47.09-21.71a.51.51,0,0,1,.4-.2H681.7a.51.51,0,0,1,.44.26.52.52,0,0,1,0,.5c-6,10.06-.06,20.66,0,20.77a.5.5,0,0,1,0,.5A.5.5,0,0,1,681.7,291.85Zm-69.45-1h68.63c-1.24-2.6-4.8-11.52,0-20.28h-68.7C611.5,271.69,608.77,277.52,612.25,290.85Z" style="fill:#263238;clip-path:url(#freepik--clip-path--inject-91)"></path></clipPath><clipPath id="freepik--clip-path-4--inject-91"><path d="M681.7,354.37H612.8a.49.49,0,0,1-.48-.37,56.19,56.19,0,0,1,0-28.83.5.5,0,0,1,.48-.35h68.9a.52.52,0,0,1,.44.25.54.54,0,0,1,0,.51c-6.08,10.12,0,27.95,0,28.13a.48.48,0,0,1-.06.45A.52.52,0,0,1,681.7,354.37Zm-68.51-1H681c-1-3.33-5.22-18-.16-27.55H613.17A55.64,55.64,0,0,0,613.19,353.37Z" style="fill:#263238;clip-path:url(#freepik--clip-path-2--inject-91)"></path></clipPath></defs><g id="freepik--background-simple--inject-91"><path d="M727.75,234.09c-.83-39-23.51-76.61-58.07-105.65-20.21-17-44.53-31.88-71.09-43.47-27.55-12-57.51-25.51-90.77-27.57a95.77,95.77,0,0,0-24.72,1.36c-31,6.24,30.36,28.48,38.38,31.73-85.77-24.76-174.54-49.92-268.3-47.55-18.07.46-36.82,2.11-52.72,8.88S172.27,71.65,174.64,84.6c2,10.7,12.66,22.66,2.62,31-2.87,2.4-6.95,3.81-10.94,5-20.51,6.3-42.65,9.6-62.08,17.62-30.08,12.41-50.62,35.21-60.13,59.2s-9.06,49.21-5.33,73.61c7,45.94,26.15,91.5,64.84,127.23,55.26,51,145.86,77,236.6,81.29,109.81,5.18,228.87-22,301.48-84.79,10.77-9.32,20.64-19.64,24.56-31.33s.81-25-11.24-32.67c-3.25-2.07-7.43-4.26-7.08-7.47.48-4.35,8.21-5.81,14.1-6.73,38.65-6,60.76-37.63,64.74-66.09A102.19,102.19,0,0,0,727.75,234.09Z" style="fill:#37474F"></path><path d="M727.75,234.09c-.83-39-23.51-76.61-58.07-105.65-20.21-17-44.53-31.88-71.09-43.47-27.55-12-57.51-25.51-90.77-27.57a95.77,95.77,0,0,0-24.72,1.36c-31,6.24,30.36,28.48,38.38,31.73-85.77-24.76-174.54-49.92-268.3-47.55-18.07.46-36.82,2.11-52.72,8.88S172.27,71.65,174.64,84.6c2,10.7,12.66,22.66,2.62,31-2.87,2.4-6.95,3.81-10.94,5-20.51,6.3-42.65,9.6-62.08,17.62-30.08,12.41-50.62,35.21-60.13,59.2s-9.06,49.21-5.33,73.61c7,45.94,26.15,91.5,64.84,127.23,55.26,51,145.86,77,236.6,81.29,109.81,5.18,228.87-22,301.48-84.79,10.77-9.32,20.64-19.64,24.56-31.33s.81-25-11.24-32.67c-3.25-2.07-7.43-4.26-7.08-7.47.48-4.35,8.21-5.81,14.1-6.73,38.65-6,60.76-37.63,64.74-66.09A102.19,102.19,0,0,0,727.75,234.09Z" style="fill:#fff;opacity:0.7000000000000001"></path></g><g id="freepik--Floor--inject-91"><path d="M741,396.3H28.78a.5.5,0,0,1,0-1H741a.5.5,0,0,1,0,1Z" style="fill:#263238"></path></g><g id="freepik--Plant--inject-91"><path d="M70.05,139.89s-4.45,12.25-13.92,13.92S30,137.1,40.54,127.64,65.6,133.2,70.05,139.89Z" style="fill:#37474F"></path><path d="M54.92,154.41c-5.61,0-13.18-5.65-16.58-12.67-2.8-5.75-2.13-10.89,1.87-14.48a11.76,11.76,0,0,1,9.67-3.06c8.27,1,16.84,9.79,20.59,15.41a.48.48,0,0,1,0,.45c-.18.51-4.66,12.54-14.3,14.24A7.86,7.86,0,0,1,54.92,154.41Zm-6.68-29.32A10.75,10.75,0,0,0,40.88,128c-4.92,4.39-3.14,10.22-1.64,13.3,3.5,7.21,11.52,12.94,16.81,12,8.35-1.47,12.77-11.68,13.44-13.36-3.71-5.47-11.9-13.76-19.73-14.76A13.37,13.37,0,0,0,48.24,125.09Z" style="fill:#263238"></path><path d="M84.53,79.75s-13.92,34-8.35,50.67,40.09,29,50.11,7.24-12.25-52.34-20.6-59S87.31,74.18,84.53,79.75Z" style="fill:#37474F"></path><path d="M107,149.82c-.57,0-1.15,0-1.74,0-13-.72-26.28-9.33-29.57-19.19-5.56-16.69,7.8-49.62,8.37-51v0a10.41,10.41,0,0,1,7.32-5.17c4.86-1.07,10.18.35,14.6,3.89,8.5,6.79,30.88,37.65,20.74,59.62C123.17,145.62,116.2,149.82,107,149.82ZM85,80c-.38.93-13.73,34.11-8.34,50.3,3.17,9.51,16,17.81,28.68,18.51,5.57.31,15.63-.75,20.51-11.32C135.75,116,113.73,85.71,105.38,79c-4.19-3.35-9.2-4.7-13.76-3.7A9.43,9.43,0,0,0,85,80Z" style="fill:#263238"></path><path d="M165.82,94.23s-23.94,21.71-26.72,43.43,13.36,29.51,30.06,26.73,25.06-45.11,20.05-64.59S165.82,94.23,165.82,94.23Z" style="fill:#37474F"></path><path d="M162.73,165.43c-7.35,0-13.74-2.23-18.11-6.43-5.1-4.92-7.18-12.32-6-21.4,2.78-21.65,26.65-43.52,26.89-43.74l0,0c.37-.28,9.2-6.88,16.47-4.34,3.71,1.29,6.3,4.71,7.7,10.18,3.61,14,.39,41.7-9.17,56.38-3.37,5.17-7.16,8.14-11.27,8.83A40,40,0,0,1,162.73,165.43Zm3.41-70.82c-.75.7-23.85,22.07-26.55,43.11-1.12,8.76.86,15.87,5.73,20.56,5.38,5.19,14,7.23,23.76,5.61,3.83-.64,7.39-3.46,10.6-8.39,9.42-14.47,12.6-41.76,9-55.58-1.31-5.12-3.69-8.32-7.05-9.49C175.05,88.12,166.58,94.29,166.14,94.61Z" style="fill:#263238"></path><path d="M170.28,214.5s-26.73,1.11-27.84,13.92,11.69,15.59,24.5,4.45S181.41,215.05,170.28,214.5Z" style="fill:#37474F"></path><path d="M151.71,240.35a10.73,10.73,0,0,1-4.9-1.1c-3.59-1.83-5.32-5.69-4.87-10.88,1.14-13.09,27.21-14.33,28.32-14.37h0c4.37.22,6.95,1.39,7.68,3.49,1.13,3.29-2.47,8.59-10.72,15.76C162,237.87,156.38,240.35,151.71,240.35ZM170.28,215c-.9,0-26.3,1.39-27.34,13.46-.42,4.75,1.12,8.26,4.33,9.9,4.82,2.45,12.42.15,19.34-5.87,9.85-8.56,11.1-12.7,10.42-14.67C176.45,216.15,174.18,215.2,170.28,215Z" style="fill:#263238"></path><path d="M143.09,231.92l-.42-.91c.86-.39,21.23-9.68,30.67-11.34l.18,1C164.2,222.29,143.3,231.83,143.09,231.92Z" style="fill:#263238"></path><path d="M176.24,298.29s-19.64-18.17-29.5-9.93-2.82,19.29,14.11,20.52S183.69,306.58,176.24,298.29Z" style="fill:#37474F"></path><path d="M166.83,309.62q-2.73,0-6-.24c-9.7-.71-16.86-4.65-18.67-10.28-1.24-3.84.28-7.79,4.28-11.12,10.08-8.42,29.34,9.19,30.16,9.95l0,0c2.92,3.25,3.91,5.91,2.93,7.9C178.32,308.36,174.05,309.62,166.83,309.62ZM153,286.73a9,9,0,0,0-6,2c-3.66,3.05-5.07,6.62-4,10,1.66,5.16,8.65,8.92,17.79,9.59,13,.95,16.85-1.08,17.76-3,.78-1.59-.15-3.87-2.76-6.77C175.34,298.16,162.71,286.73,153,286.73Z" style="fill:#263238"></path><path d="M174.15,304.93c-7.73-5.45-29.23-13.55-29.44-13.63l.35-.94c.89.33,21.83,8.23,29.67,13.75Z" style="fill:#263238"></path><path d="M72.68,292.94s27.06-25,40.66-13.69,3.88,26.59-19.45,28.28S62.4,304.37,72.68,292.94Z" style="fill:#37474F"></path><path d="M85.61,308.36c-9.85,0-15.66-1.69-17.31-5.07-1.31-2.67,0-6.26,4-10.68l0,0c1.12-1,27.54-25.22,41.33-13.71,5.44,4.54,7.51,9.91,5.83,15.13-2.48,7.69-12.27,13.06-25.57,14Q89.37,308.36,85.61,308.36ZM73,293.29c-3.66,4.08-5,7.3-3.85,9.57,1.29,2.63,6.62,5.49,24.66,4.17,12.69-.92,22.39-6.16,24.7-13.34,1.54-4.8-.42-9.79-5.53-14.05C100.05,268.8,73.83,292.57,73,293.29Z" style="fill:#263238"></path><path d="M75.44,301.94l-.58-.82c10.79-7.6,40.56-18.82,40.86-18.94l.35.94C115.78,283.23,86.12,294.41,75.44,301.94Z" style="fill:#263238"></path><path d="M104,241.22s-2.79,13.37-12.81,18.38S63.37,254,72.84,237.88,99,234.54,104,241.22Z" style="fill:#37474F"></path><path d="M85.62,261.34a17.1,17.1,0,0,1-12.23-5.27c-4.61-4.92-5-11.64-1-18.44,3-5.07,6.88-7.78,11.63-8,8.3-.46,16.9,6.71,20.38,11.34a.55.55,0,0,1,.09.41c-.12.55-3,13.65-13.07,18.71A13,13,0,0,1,85.62,261.34Zm-.82-30.78-.7,0c-4.4.25-8,2.79-10.83,7.56-3.75,6.38-3.44,12.67.85,17.25S85.89,261.7,91,259.15c9-4.5,12.07-16.07,12.49-17.81C99.92,236.71,92,230.56,84.8,230.56Z" style="fill:#263238"></path><path d="M80.63,199.46s-5-11.13-24.5-3.89-27.28,18.37-15,22.27S80.63,199.46,80.63,199.46Z" style="fill:#37474F"></path><path d="M44.33,218.79a11.09,11.09,0,0,1-3.38-.48c-5.07-1.61-6.18-4.22-6.23-6.12-.13-5.54,8.21-12.25,21.24-17.09,19.7-7.32,25.08,4,25.13,4.16a.51.51,0,0,1-.14.59C79.92,200.69,57.58,218.79,44.33,218.79ZM68.08,193.6A34.1,34.1,0,0,0,56.31,196c-12.43,4.62-20.71,11.1-20.59,16.13.07,2.87,3.05,4.41,5.53,5.2,11.16,3.55,35.68-15.58,38.75-18C79.26,198,76.15,193.6,68.08,193.6Z" style="fill:#263238"></path><path d="M45.42,211.05l-.65-.76c11.15-9.47,31.87-11.81,32.08-11.83l.11,1C76.75,199.48,56.33,201.78,45.42,211.05Z" style="fill:#263238"></path><path d="M136.31,65.83s3.34,7.8,10,6.13,8.35-11.7,18.93-8.91,19.48,15,19.48,9.46-13.36-20-28.39-20S136.87,58.59,136.31,65.83Z" style="fill:#37474F"></path><path d="M183.92,74.45c-1.14,0-2.83-1.29-5.37-3.24-3.5-2.67-8.28-6.33-13.41-7.68-6.27-1.65-9.16,1.29-12.23,4.4-1.85,1.89-3.77,3.84-6.45,4.51-7,1.76-10.57-6.33-10.61-6.41a.67.67,0,0,1,0-.24c.72-9.3,7.44-13.82,20.55-13.82,15.77,0,28.89,14.92,28.89,20.54,0,.36,0,1.43-.77,1.81A1.18,1.18,0,0,1,183.92,74.45ZM161.83,62.07a14.16,14.16,0,0,1,3.56.49c5.33,1.4,10.2,5.13,13.76,7.86,2,1.54,4.3,3.29,4.89,3,.1-.05.21-.32.21-.92C184.25,67,171,53,156.36,53c-12.43,0-18.82,4.18-19.54,12.77.44,1,3.55,7.19,9.39,5.73,2.41-.6,4.15-2.37,6-4.24C154.61,64.78,157.28,62.07,161.83,62.07Z" style="fill:#263238"></path><path d="M116.61,229.75a72.68,72.68,0,0,0-2.49-8.09C104.41,195.76,81,199.91,80.73,200l-.19-1c.24,0,24.5-4.37,34.52,22.34a75.35,75.35,0,0,1,2.52,8.2Z" style="fill:#263238"></path><path d="M180.69,173.67s5-11.13,24.5-3.9,27.29,18.38,15,22.28S180.69,173.67,180.69,173.67Z" style="fill:#37474F"></path><path d="M217,193c-13.25,0-35.6-18.1-36.62-18.94a.48.48,0,0,1-.14-.59c0-.12,5.43-11.48,25.13-4.16,13,4.84,21.36,11.54,21.23,17.08,0,1.91-1.16,4.52-6.22,6.13A11.14,11.14,0,0,1,217,193Zm-35.67-19.46c3.07,2.45,27.59,21.58,38.74,18,2.49-.79,5.47-2.34,5.53-5.2.12-5-8.15-11.51-20.58-16.13C187.94,163.9,182.35,171.73,181.33,173.54Z" style="fill:#263238"></path><path d="M214.33,185.32c-9.21-11.38-29-10.42-29.16-10.42l0-1c.2,0,20.45-1,30,10.78Z" style="fill:#263238"></path><path d="M164.3,176.39l-.4-.92a31.15,31.15,0,0,1,16.89-2.29l-.19,1A30.66,30.66,0,0,0,164.3,176.39Z" style="fill:#263238"></path><path d="M93.06,154.05C81.55,142.3,70.09,140.4,70,140.38S53,136,46.55,141.85l-.67-.73c6.81-6.25,23.59-1.91,24.3-1.72.07,0,11.86,2,23.59,13.95Z" style="fill:#263238"></path><rect x="94.78" y="87.31" width="1" height="4.77" transform="translate(-17.3 23) rotate(-12.63)" style="fill:#263238"></rect><path d="M123.41,338.19l-1,0c0-1,2.47-96.19,0-125s-14-62.77-14.12-63.12l-11.87-53,1-.22,11.87,53c.1.29,11.68,34.45,14.15,63.3S123.44,337.23,123.41,338.19Z" style="fill:#263238"></path><rect x="170.94" y="109.81" width="5.07" height="1" transform="translate(0.16 220.87) rotate(-64.99)" style="fill:#263238"></rect><path d="M129.24,338.07h-1c0-.87.87-87.78,4.16-112.48s16.53-63.77,16.66-64.16l20.45-43.81.91.42L150,161.79c-.11.34-13.32,39.3-16.6,63.92S129.24,337.2,129.24,338.07Z" style="fill:#263238"></path><path d="M134.23,338.22l-1-.06c3.29-55.94,9.1-106.25,9.15-106.75l1,.12C143.32,232,137.52,282.3,134.23,338.22Z" style="fill:#263238"></path><path d="M115.09,338.08l-1,0c0-.8,1.63-80-1.64-90.64-1.16-3.77-2.76-6.06-4.63-6.61a4.17,4.17,0,0,0-3.48.79l-.11.1-.15,0c-.16,0-15.23,1.89-20.62,10.51l-.85-.53c5.42-8.67,19.54-10.74,21.21-11a5,5,0,0,1,4.27-.89c2.24.65,4,3.1,5.32,7.28C116.72,257.9,115.16,334.81,115.09,338.08Z" style="fill:#263238"></path><path d="M119.25,338.18l-1-.06c0-.77,4-78.11-.33-102.17l1-.17C123.22,259.94,119.29,337.4,119.25,338.18Z" style="fill:#263238"></path><path d="M137.39,338.19c0-1.16-1-116.27,8.88-142.67,2.87-7.68,7.19-13.53,12.83-17.38l.56.82c-5.46,3.74-9.65,9.43-12.46,16.91-9.84,26.23-8.82,141.16-8.81,142.31Z" style="fill:#263238"></path><path d="M126.74,338.13l-1-.13c2.35-17.2-2.4-117-15.78-155.46a78.5,78.5,0,0,0-14-25.34l.76-.65a79.46,79.46,0,0,1,14.21,25.67C124.33,220.8,129.09,320.89,126.74,338.13Z" style="fill:#263238"></path><path d="M129.24,338.07h-1c0-1,.58-97.63,1.38-145.38l1,0C129.82,240.44,129.24,337.1,129.24,338.07Z" style="fill:#263238"></path><path d="M130.72,186.69l-1,0c.66-38.54,1.28-65.46,1.84-80,.71-18.23,2-40.14,4.39-41.28.7-1.71,4.82-9.66,20.77-8.64l-.06,1C140,56.65,136.82,65.89,136.79,66l-.24.76-.3-.28c-.62,1.08-2.41,7.08-3.69,40.23C132,121.24,131.38,148.15,130.72,186.69Z" style="fill:#263238"></path><path d="M108.91,223.15S95,210.74,100.56,204.63s40.09-10.58,50.12-2.64-12.25,19.13-20.61,21.57S111.7,225.19,108.91,223.15Z" style="fill:#37474F"></path><path d="M119,225.56c-4.65,0-8.66-.77-10.35-2l0,0c-.39-.35-9.49-8.54-9.82-15a5.58,5.58,0,0,1,1.43-4.19c5.81-6.37,40.77-10.64,50.8-2.7,2.17,1.72,3,3.71,2.62,5.93-1.42,7.3-17.1,14.67-23.4,16.51A41,41,0,0,1,119,225.56Zm-9.74-2.8c2.55,1.83,12.33,2.77,20.7.32,7.27-2.12,21.46-9.4,22.7-15.75.36-1.84-.38-3.46-2.27-5-9.76-7.73-43.78-3.6-49.43,2.59a4.56,4.56,0,0,0-1.17,3.47C100.06,214.39,108.77,222.35,109.23,222.76Z" style="fill:#263238"></path><path d="M122,216.69h-1a24.92,24.92,0,0,1,.32-3.78l1,.15A24.28,24.28,0,0,0,122,216.69Z" style="fill:#263238"></path><path d="M123.46,207.86l-1-.28a64.22,64.22,0,0,1,3.61-9.31l.89.45A63.38,63.38,0,0,0,123.46,207.86Z" style="fill:#263238"></path><path d="M108.91,304.31S95,291.9,100.56,285.8s40.09-10.59,50.12-2.65-12.25,19.13-20.61,21.57S111.7,306.35,108.91,304.31Z" style="fill:#37474F"></path><path d="M119,306.72c-4.65,0-8.66-.76-10.35-2l0,0c-.39-.35-9.49-8.54-9.82-15a5.58,5.58,0,0,1,1.43-4.19c5.81-6.37,40.77-10.64,50.8-2.7,2.17,1.72,3,3.72,2.62,5.93-1.42,7.3-17.1,14.67-23.4,16.51A41,41,0,0,1,119,306.72Zm-9.74-2.8c2.55,1.83,12.33,2.77,20.7.32,7.27-2.12,21.46-9.4,22.7-15.74.36-1.84-.38-3.46-2.27-5-9.76-7.73-43.78-3.6-49.43,2.59a4.56,4.56,0,0,0-1.17,3.47C100.06,295.55,108.77,303.51,109.23,303.92Z" style="fill:#263238"></path><path d="M122,297.86h-1c0-8,4.94-18,5.15-18.43l.89.45C127,280,122,290.06,122,297.86Z" style="fill:#263238"></path><path d="M119.28,270s-9.45-8.43-5.67-12.57,27.22-7.19,34-1.8-8.32,13-14,14.64S121.17,271.37,119.28,270Z" style="fill:#37474F"></path><path d="M126.13,271.78c-3.21,0-6-.53-7.15-1.39l0,0c-.26-.24-6.49-5.84-6.72-10.32a3.9,3.9,0,0,1,1-3c4-4.35,27.85-7.28,34.7-1.85a4.13,4.13,0,0,1,1.84,4.18c-1,5-11.69,10.08-16,11.33A28,28,0,0,1,126.13,271.78Zm-6.54-2.18c1.71,1.22,8.27,1.83,13.91.19,4.9-1.44,14.47-6.33,15.3-10.57a3.18,3.18,0,0,0-1.48-3.21c-6.46-5.12-29.73-2.22-33.34,1.74a2.9,2.9,0,0,0-.76,2.24C113.42,263.94,119.22,269.26,119.59,269.6Z" style="fill:#263238"></path><path d="M128.3,265.6h-1c0-5.49,3.36-12.29,3.51-12.58l.89.45C131.67,253.54,128.3,260.35,128.3,265.6Z" style="fill:#263238"></path><rect x="106.2" y="324.26" width="37.68" height="83.55" style="fill:#263238"></rect><path d="M143.88,408.32H106.2a.51.51,0,0,1-.5-.5V324.26a.51.51,0,0,1,.5-.5h37.68a.5.5,0,0,1,.5.5v83.56A.5.5,0,0,1,143.88,408.32Zm-37.18-1h36.68V324.76H106.7Z" style="fill:#263238"></path></g><g id="freepik--kitten-2--inject-91"><path d="M632.78,179.53s5.68-24.38,25.05-30.06,33.07,10,36.41,23.05-8.68,26.72-18,16-11-30.06-20-28.06-15,12-18,20.71S632.78,179.53,632.78,179.53Z" style="fill:#37474F"></path><path d="M683.51,192.88c-2.7,0-5.37-1.36-7.68-4-3.86-4.41-6.44-10.3-8.71-15.49-3.3-7.54-5.9-13.51-10.85-12.41-10.67,2.37-16.22,16.2-17.67,20.39-.92,2.65-1.84,3.84-3,3.8-2-.11-3.1-4.62-3.31-5.53a.81.81,0,0,1,0-.22c.06-.25,6-24.73,25.4-30.43a26.71,26.71,0,0,1,21.19,2.27c9,5.12,14.09,14.28,15.85,21.13,2.18,8.53-2,16.73-7.15,19.44A8.63,8.63,0,0,1,683.51,192.88Zm-26.07-33c4.85,0,7.53,6.13,10.6,13.14,2.24,5.13,4.78,10.93,8.54,15.23,3.2,3.65,6.93,4.62,10.53,2.73,4.8-2.53,8.71-10.25,6.65-18.31-1.71-6.66-6.64-15.54-15.37-20.51A25.77,25.77,0,0,0,658,150c-18.21,5.34-24.23,27.81-24.67,29.59.44,1.88,1.47,4.58,2.36,4.63.22,0,1-.18,2-3.13,1.91-5.52,7.53-18.62,18.4-21A6.94,6.94,0,0,1,657.44,159.85Z" style="fill:#263238"></path><path d="M676.2,188.55c9.36,10.69,21.38-3,18-16a35.32,35.32,0,0,0-12.69-18.91c-7.57,3-12.83,9.72-16,15C668.43,174.73,671.23,182.87,676.2,188.55Z" style="fill:#fff"></path><path d="M683.51,192.88c-2.7,0-5.37-1.36-7.68-4h0c-3.86-4.41-6.44-10.3-8.71-15.49-.7-1.6-1.36-3.11-2-4.52a.52.52,0,0,1,0-.47c3.12-5.23,8.47-12.11,16.26-15.25a.49.49,0,0,1,.48.06,35.69,35.69,0,0,1,12.88,19.18c2.18,8.53-2,16.73-7.15,19.44A8.63,8.63,0,0,1,683.51,192.88Zm-6.93-4.66c3.2,3.65,6.93,4.62,10.53,2.73,4.8-2.53,8.71-10.25,6.65-18.31a34.63,34.63,0,0,0-12.28-18.45c-7.28,3-12.35,9.49-15.37,14.5.64,1.35,1.27,2.79,1.93,4.3,2.24,5.13,4.78,10.93,8.54,15.23Z" style="fill:#263238"></path><path d="M608.4,245.79a41.41,41.41,0,0,0,5,4.34c1.67,1,6,1,6,1s-4.68,8.69-6.68,11.69-7.68,2-6,4.68,8.68.67,10,0,8.6-10.92,11.48-15,5.22-11.08-.46-12.41S608.4,245.79,608.4,245.79Z" style="fill:#263238"></path><path d="M610.33,269.35c-1.72,0-3.28-.4-4-1.59a1.74,1.74,0,0,1-.3-1.56c.3-.8,1.34-1.12,2.53-1.49,1.39-.43,3-.92,3.8-2.17,1.63-2.44,5.1-8.79,6.26-10.93-1.38-.05-4.12-.26-5.44-1.05a41.31,41.31,0,0,1-5.11-4.42.5.5,0,0,1,.13-.8c.57-.29,13.94-7.08,19.72-5.72a4.61,4.61,0,0,1,3.51,2.85c1.1,2.9-.6,7.29-2.76,10.34C621.47,262.92,618,267.44,617,268A18.82,18.82,0,0,1,610.33,269.35Zm-1.08-23.43a34.15,34.15,0,0,0,4.42,3.78c1.27.76,4.58.93,5.75.93a.5.5,0,0,1,.43.24.52.52,0,0,1,0,.5c-.19.35-4.71,8.74-6.7,11.73-1,1.54-2.86,2.11-4.33,2.56-.87.27-1.76.55-1.89.89a.91.91,0,0,0,.21.68c1.37,2.18,7.83.6,9.38-.18.81-.4,4.6-5.39,11.28-14.81,2-2.76,3.62-6.87,2.66-9.42a3.65,3.65,0,0,0-2.81-2.22C622.9,239.47,612,244.59,609.25,245.92Z" style="fill:#263238"></path><path d="M590.06,139.59l-30.83-.3s-12.62-10.86-17.61-13.8-8.22-4.11-8.52,5.29,1.18,20.55,4.11,23.49l5,5s-5.57,11.45-5,21.14,7.93,11.45,7.93,11.45S550.72,230,554,240.29a232.26,232.26,0,0,1,5.58,22.9,4.67,4.67,0,0,0-3.82,4.12c-.29,3.52,5.87,4.69,9.1,1.17s6.46-23.78,6.46-23.78l15.86.58s1.17,21.44,3.81,24.08,10,2.35,10.28.29a4.49,4.49,0,0,0-1.18-3.52l8.52-19.67,15.85-3.52a15.72,15.72,0,0,0,3.82,6.46A11.88,11.88,0,0,0,634.4,252s-.88,10-3.23,11.15-5.58,1.77-5,3.82,9.39,2.06,12.33.3,5.58-11.16,6.16-16.15-.29-6.76-.29-6.76a57.06,57.06,0,0,0,9.4-31.71c0-19.08-12.63-33.76-24.67-36.11s-16.44,2.35-16.44,2.35,2.06-7.34.29-11.45-3.81-10.28-3.81-10.28,7.92-7.34,10.27-17.32c2-8.29,2.94-20.26-.88-19.09S596.52,129.6,590.06,139.59Z" style="fill:#37474F"></path><path d="M597,271.76c-2.29,0-4.92-.59-6.37-2.05-2.57-2.56-3.72-20.28-3.94-23.94l-15-.56c-.5,3.06-3.45,20.27-6.51,23.61a7.14,7.14,0,0,1-7.75,1.8,3.34,3.34,0,0,1-2.22-3.36,5,5,0,0,1,3.74-4.43c-.46-2.36-2.64-13.35-5.48-22.39-3.05-9.7-8.24-44.53-8.78-48.21-1.48-.5-7.45-3.06-8-11.8-.54-8.92,4-19.1,4.89-21.07l-4.74-4.74c-3.15-3.15-4.55-14.64-4.26-23.86.14-4.37.89-6.69,2.43-7.54,1.77-1,4.24.31,6.84,1.84,4.75,2.79,16.09,12.48,17.55,13.73l30.37.29c6.82-10.22,25.43-17.79,28.6-18.76a1.82,1.82,0,0,1,1.88.39c2.49,2.33,1.1,13.07-.36,19.28-2.16,9.17-8.82,16-10.19,17.35.44,1.29,2.19,6.41,3.7,9.94,1.36,3.16.58,8,.07,10.38,2-1.29,6.86-3.3,15.72-1.57,12,2.35,25.07,17,25.07,36.6a58.64,58.64,0,0,1-9.34,31.79c.24.7.7,2.71.23,6.73-.58,4.9-3.21,14.61-6.41,16.52-2.64,1.59-9,1.75-11.62.71a2.16,2.16,0,0,1-1.44-1.29c-.58-2,1.6-2.88,3.51-3.65.59-.24,1.19-.48,1.73-.75,1.47-.74,2.54-6.5,2.91-10.28a12.09,12.09,0,0,1-6-2.7,15.43,15.43,0,0,1-3.82-6.25l-15.16,3.37L600.63,266a4.86,4.86,0,0,1,1.08,3.68c-.07.5-.44,1.18-1.79,1.64A9.76,9.76,0,0,1,597,271.76ZM571.27,244.2h0l15.85.59a.48.48,0,0,1,.48.47c.33,5.91,1.62,21.69,3.68,23.75,1.73,1.73,6,2.18,8.3,1.4.66-.22,1.08-.53,1.12-.83a4,4,0,0,0-1-3.1.49.49,0,0,1-.1-.55l8.51-19.67a.49.49,0,0,1,.35-.29l15.86-3.52a.48.48,0,0,1,.58.35s1.17,4,3.67,6.22a11.34,11.34,0,0,0,5.88,2.52.48.48,0,0,1,.34.18.47.47,0,0,1,.11.36c-.09,1-1,10.3-3.5,11.56-.58.29-1.2.54-1.8.79-2.21.89-3.22,1.42-2.93,2.44.06.22.37.45.85.64,2.57,1,8.59.66,10.74-.63,2.63-1.58,5.31-10.55,5.93-15.78.55-4.72-.24-6.46-.25-6.48a.49.49,0,0,1,.05-.51,57.18,57.18,0,0,0,9.3-31.42c0-19.08-12.6-33.34-24.26-35.62s-15.94,2.16-16,2.2a.49.49,0,0,1-.61.09.49.49,0,0,1-.23-.57c0-.07,2-7.22.31-11.12-1.75-4.08-3.81-10.25-3.83-10.31a.5.5,0,0,1,.14-.53c.07-.07,7.84-7.35,10.13-17.07,1.76-7.49,2.44-16.64.64-18.32a.83.83,0,0,0-.89-.17c-3.14,1-21.68,8.5-28.21,18.59a.5.5,0,0,1-.42.23l-30.83-.3a.47.47,0,0,1-.32-.12c-.13-.11-12.65-10.87-17.55-13.75-2.24-1.32-4.54-2.55-5.85-1.82-1.16.64-1.79,2.83-1.91,6.69-.28,9.13,1.12,20.28,4,23.12l5,5a.5.5,0,0,1,.09.58c0,.11-5.51,11.44-4.94,20.89.56,9.18,7.26,10.92,7.55,11a.49.49,0,0,1,.37.42c.06.38,5.61,38.24,8.79,48.36a235.29,235.29,0,0,1,5.6,23,.5.5,0,0,1-.41.59,4.13,4.13,0,0,0-3.4,3.66,2.36,2.36,0,0,0,1.62,2.35,6.06,6.06,0,0,0,6.61-1.56c3.1-3.37,6.31-23.32,6.34-23.52A.5.5,0,0,1,571.27,244.2Z" style="fill:#263238"></path><path d="M552.48,142.23c-.79-3.69-13.38-15.4-17.46-18.41-1.12.83-1.79,2.91-1.92,7-.29,9.39,1.18,20.55,4.11,23.49l5,5S553.36,146.34,552.48,142.23Z" style="fill:#d6d6d6"></path><path d="M542.2,159.76a.51.51,0,0,1-.35-.15l-5-5c-3.15-3.15-4.55-14.64-4.26-23.86.13-4,.8-6.37,2.13-7.34a.5.5,0,0,1,.59,0c3.92,2.89,16.81,14.77,17.65,18.7h0c.91,4.23-9.23,16.12-10.39,17.46a.5.5,0,0,1-.36.18Zm-7.15-35.3c-.87.93-1.34,3-1.45,6.33-.28,9.13,1.12,20.28,4,23.12l4.61,4.61c3.26-3.84,10.47-13.13,9.81-16.19h0C551.29,139.08,539.74,128,535.05,124.46Z" style="fill:#263238"></path><path d="M601.81,133.13c-5.29,5.87-6.46,11.74-5.58,13.21s12.92,10.86,12.92,10.86,7.92-7.34,10.27-17.32c2-8.29,2.94-20.26-.88-19.09C618.54,120.79,607.09,127.25,601.81,133.13Z" style="fill:#d6d6d6"></path><path d="M609.15,157.7a.5.5,0,0,1-.31-.1c-1.24-1-12.14-9.5-13-11-1.13-1.89.46-8.06,5.63-13.81s16.4-12.17,16.87-12.43l.09,0a1.82,1.82,0,0,1,1.88.39c2.49,2.33,1.1,13.07-.36,19.28-2.36,10-10.1,17.27-10.42,17.58A.5.5,0,0,1,609.15,157.7Zm9.59-36.44c-.82.47-11.57,6.65-16.56,12.2h0c-5.44,6-6.17,11.55-5.52,12.62s7.64,6.7,12.45,10.46c1.47-1.46,7.8-8.16,9.83-16.78,1.76-7.49,2.44-16.64.64-18.32A.79.79,0,0,0,618.74,121.26Zm-16.93,11.87h0Z" style="fill:#263238"></path><path d="M577.89,168.33s-4.43-.28-5.1,1.49,2.68,3.35,4.35,3,4.11-1.48,3.94-3.16S577.89,168.33,577.89,168.33Z" style="fill:#fff"></path><path d="M576.58,173.35a5.53,5.53,0,0,1-3.79-1.65,2,2,0,0,1-.47-2.06c.76-2,4.88-1.85,5.55-1.82a4.7,4.7,0,0,1,3.06.58,1.68,1.68,0,0,1,.65,1.18c.21,2.09-2.63,3.31-4.33,3.7A2.87,2.87,0,0,1,576.58,173.35Zm.6-4.54c-1.56,0-3.58.29-3.92,1.19,0,.12-.19.5.28,1.05a4.4,4.4,0,0,0,3.48,1.26c1.51-.35,3.69-1.33,3.56-2.63a.65.65,0,0,0-.27-.49,4,4,0,0,0-2.36-.37h-.09C577.65,168.81,577.42,168.81,577.18,168.81Z" style="fill:#263238"></path><path d="M570.85,179.37a5.15,5.15,0,0,1-.55,0c-4-.32-4.79-5.72-4.82-5.95a.49.49,0,0,1,.43-.56.5.5,0,0,1,.56.43s.69,4.83,3.91,5.08c3.5.29,5.81-2.62,6.26-5.63a.5.5,0,0,1,.37-.41.5.5,0,0,1,.52.18c1,1.32,4.16,4.64,6.44,4.16,2.63-.55,3.5-5.1,3.52-6.7a.49.49,0,0,1,.5-.49h0a.5.5,0,0,1,.5.5c0,1.44-.8,6.94-4.32,7.67-2.57.53-5.47-2.29-6.76-3.73C576.6,176.81,574.26,179.37,570.85,179.37Z" style="fill:#263238"></path><path d="M554.24,166.42a1,1,0,0,1-.73-1.68,9.89,9.89,0,0,1,13.4-.64,1,1,0,1,1-1.22,1.59c-5.94-4.51-10.53.21-10.72.42A1,1,0,0,1,554.24,166.42Z" style="fill:#263238"></path><path d="M584.16,165a1,1,0,0,1-.55-1.84c.38-.24,9.16-5.85,13.79.09a1,1,0,1,1-1.58,1.23c-3.5-4.49-11,.31-11.12.36A1,1,0,0,1,584.16,165Z" style="fill:#263238"></path><path d="M553.31,158.5a.45.45,0,0,1-.16,0,.5.5,0,0,1-.31-.63c.07-.21,1.81-5,9.71-6.56a.5.5,0,1,1,.19,1c-7.3,1.4-8.94,5.85-9,5.89A.49.49,0,0,1,553.31,158.5Z" style="fill:#263238"></path><path d="M595,158a.47.47,0,0,1-.39-.2c-4.71-6.11-9.28-4.76-9.47-4.7a.49.49,0,0,1-.62-.32.49.49,0,0,1,.32-.63c.21-.07,5.4-1.66,10.56,5a.5.5,0,0,1-.09.7A.51.51,0,0,1,595,158Z" style="fill:#263238"></path><path d="M600.05,192.06a.5.5,0,0,1-.49-.4.49.49,0,0,1,.38-.59c8.95-1.92,12.22-12.19,12.25-12.29a.5.5,0,0,1,1,.3c-.14.44-3.47,10.92-13,13Z" style="fill:#263238"></path><path d="M587.13,245.28s4.9-19-3.45-35.35-16.37-20-22.38-8-2.34,27.72,0,33.74,10,9,10,9Z" style="fill:#fff"></path><path d="M587.13,245.78h0l-15.86-.58-.16,0c-.32-.13-7.86-3.19-10.25-9.33-2.58-6.64-5.9-22.31,0-34.14,2.44-4.88,5.28-7.35,8.46-7.37h0c4.61,0,9.59,5.18,14.8,15.38,8.34,16.35,3.53,35.52,3.48,35.71A.5.5,0,0,1,587.13,245.78Zm-15.75-1.58,15.35.57c.63-2.78,4-19.89-3.49-34.62-5-9.7-9.76-14.83-13.91-14.83h0c-2.76,0-5.31,2.31-7.56,6.81-5.76,11.52-2.51,26.84,0,33.34C563.88,240.89,570.58,243.87,571.38,244.2Z" style="fill:#263238"></path><path d="M608.56,246.46,612.07,229s8.69,1,13,0,8-2.68,10-8.35-.33,7.34-3,13a27,27,0,0,1-7.7,9.3Z" style="fill:#fff"></path><path d="M608.56,247a.5.5,0,0,1-.35-.14.52.52,0,0,1-.14-.46l3.51-17.49a.49.49,0,0,1,.55-.4c.08,0,8.65,1,12.86,0,4.59-1.06,7.8-2.77,9.66-8,.5-1.41.71-1.68,1.06-1.73a.59.59,0,0,1,.52.22c.67.9-1.79,10.94-3.66,14.91a27.27,27.27,0,0,1-7.86,9.49.46.46,0,0,1-.19.08L608.67,247Zm3.91-17.45L609.2,245.8l15-3.33a26.67,26.67,0,0,0,7.46-9A55.45,55.45,0,0,0,635,222.29c-2.08,4.51-5.44,6.16-9.77,7.16C621.36,230.34,614.34,229.71,612.47,229.51Z" style="fill:#263238"></path><path d="M556.89,171.06l-.11,0-9.22-2.18a.5.5,0,0,1,.23-1l9.22,2.18a.5.5,0,0,1,.37.6A.5.5,0,0,1,556.89,171.06Z" style="fill:#263238"></path><path d="M552.28,175.18a.5.5,0,0,1-.5-.5.51.51,0,0,1,.5-.5c.93,0,4.27-.47,4.3-.48a.51.51,0,0,1,.57.43.5.5,0,0,1-.43.56C556.58,174.71,553.28,175.18,552.28,175.18Z" style="fill:#263238"></path><path d="M553.25,182.7a.5.5,0,0,1-.33-.12.5.5,0,0,1,0-.71l4.37-4.85a.5.5,0,1,1,.74.67l-4.36,4.85A.51.51,0,0,1,553.25,182.7Z" style="fill:#263238"></path><path d="M595.23,168.39a.51.51,0,0,1-.48-.36.5.5,0,0,1,.34-.62l7.28-2.18a.5.5,0,1,1,.28,1l-7.27,2.19Z" style="fill:#263238"></path><path d="M599.12,172.76h0l-5.1-.48a.5.5,0,0,1-.45-.55.51.51,0,0,1,.55-.45l5.09.49a.49.49,0,0,1,.45.54A.5.5,0,0,1,599.12,172.76Z" style="fill:#263238"></path><path d="M597.9,179.06a.52.52,0,0,1-.29-.09l-6.07-4.37a.5.5,0,0,1,.59-.81l6.06,4.37a.5.5,0,0,1,.12.7A.51.51,0,0,1,597.9,179.06Z" style="fill:#263238"></path><rect x="494.26" y="269.03" width="147.99" height="23.02" style="fill:#fff"></rect><path d="M642.25,292.54h-148a.5.5,0,0,1-.5-.5V269a.5.5,0,0,1,.5-.5h148a.5.5,0,0,1,.5.5v23A.5.5,0,0,1,642.25,292.54Zm-147.49-1h147v-22h-147Z" style="fill:#263238"></path><path d="M501.85,277.39h-6.06a.5.5,0,0,1-.5-.5.5.5,0,0,1,.5-.5h6.06a.5.5,0,0,1,.5.5A.5.5,0,0,1,501.85,277.39Z" style="fill:#263238"></path><path d="M534,278.37h-3.54a.5.5,0,0,1-.5-.5.5.5,0,0,1,.5-.5H534a.5.5,0,0,1,.5.5A.5.5,0,0,1,534,278.37Z" style="fill:#263238"></path><path d="M524.53,275H495.4a.5.5,0,0,1,0-1h29.13a.5.5,0,0,1,0,1Z" style="fill:#263238"></path><path d="M508,286.94H496a.51.51,0,0,1-.5-.5.5.5,0,0,1,.5-.5h12a.5.5,0,0,1,.5.5A.5.5,0,0,1,508,286.94Z" style="fill:#263238"></path><path d="M611.87,270.07s-4.18,5.61,0,21.28H681.7s-6.27-10.83,0-21.28Z" style="fill:#fff"></path><path d="M681.7,291.85H611.87a.52.52,0,0,1-.49-.37c-4.19-15.73-.09-21.47.09-21.71a.51.51,0,0,1,.4-.2H681.7a.51.51,0,0,1,.44.26.52.52,0,0,1,0,.5c-6,10.06-.06,20.66,0,20.77a.5.5,0,0,1,0,.5A.5.5,0,0,1,681.7,291.85Zm-69.45-1h68.63c-1.24-2.6-4.8-11.52,0-20.28h-68.7C611.5,271.69,608.77,277.52,612.25,290.85Z" style="fill:#263238"></path><g style="clip-path:url(#freepik--clip-path-3--inject-91)"><path d="M611.87,270.07s-4.18,5.61,0,21.28H681.7s-6.27-10.83,0-21.28Z" style="fill:#bababa"></path><path d="M681.7,291.85H611.87a.52.52,0,0,1-.49-.37c-4.19-15.73-.09-21.47.09-21.71a.51.51,0,0,1,.4-.2H681.7a.51.51,0,0,1,.44.26.52.52,0,0,1,0,.5c-6,10.06-.06,20.66,0,20.77a.5.5,0,0,1,0,.5A.5.5,0,0,1,681.7,291.85Zm-69.45-1h68.63c-1.24-2.6-4.8-11.52,0-20.28h-68.7C611.5,271.69,608.77,277.52,612.25,290.85Z" style="fill:#263238"></path><path d="M630.71,276.72h-20.6a.5.5,0,0,1,0-1h20.6a.5.5,0,0,1,0,1Z" style="fill:#263238"></path><path d="M643.51,278.39H626.25a.5.5,0,0,1,0-1h17.26a.5.5,0,0,1,0,1Z" style="fill:#263238"></path><path d="M674.31,281.13h-43.6a.5.5,0,0,1,0-1h43.6a.5.5,0,0,1,0,1Z" style="fill:#263238"></path></g><path d="M496,286.44V273a1.92,1.92,0,0,1,1.92-1.91H684.08a1.45,1.45,0,0,0,1.45-1.45h0a1.45,1.45,0,0,0-1.45-1.45H493.16a1.92,1.92,0,0,0-1.91,1.91v19.21a3.1,3.1,0,0,0,3.1,3.1H684.08a1.45,1.45,0,0,0,1.45-1.45h0a1.45,1.45,0,0,0-1.45-1.45h-185A3.1,3.1,0,0,1,496,286.44Z" style="fill:#fff"></path><path d="M684.08,292.94H494.35a3.6,3.6,0,0,1-3.6-3.6V270.13a2.41,2.41,0,0,1,2.41-2.41H684.08a1.95,1.95,0,0,1,0,3.9H497.92A1.42,1.42,0,0,0,496.5,273v13.41a2.61,2.61,0,0,0,2.6,2.6h185a1.95,1.95,0,0,1,0,3.9ZM493.16,268.72a1.41,1.41,0,0,0-1.41,1.41v19.21a2.61,2.61,0,0,0,2.6,2.6H684.08a.95.95,0,1,0,0-1.9h-185a3.61,3.61,0,0,1-3.6-3.6V273a2.42,2.42,0,0,1,2.42-2.41H684.08a.95.95,0,1,0,0-1.9Z" style="fill:#263238"></path><rect x="494.26" y="324.27" width="147.99" height="30.29" style="fill:#fff"></rect><path d="M642.25,355.07h-148a.51.51,0,0,1-.5-.5v-30.3a.51.51,0,0,1,.5-.5h148a.5.5,0,0,1,.5.5v30.3A.5.5,0,0,1,642.25,355.07Zm-147.49-1h147v-29.3h-147Z" style="fill:#263238"></path><path d="M522.71,330.61h-26a.5.5,0,0,1,0-1h26a.5.5,0,0,1,0,1Z" style="fill:#263238"></path><path d="M534.91,338.88h-3.54a.5.5,0,0,1-.5-.5.5.5,0,0,1,.5-.5h3.54a.5.5,0,0,1,.5.5A.5.5,0,0,1,534.91,338.88Z" style="fill:#263238"></path><path d="M525.47,338.88H496.34a.5.5,0,0,1-.5-.5.5.5,0,0,1,.5-.5h29.13a.5.5,0,0,1,.5.5A.51.51,0,0,1,525.47,338.88Z" style="fill:#263238"></path><path d="M508.93,347.44h-12a.5.5,0,0,1,0-1h12a.5.5,0,0,1,0,1Z" style="fill:#263238"></path><path d="M612.8,325.32a55.08,55.08,0,0,0,0,28.55h68.9s-6.27-18.1,0-28.55Z" style="fill:#fff"></path><path d="M681.7,354.37H612.8a.49.49,0,0,1-.48-.37,56.19,56.19,0,0,1,0-28.83.5.5,0,0,1,.48-.35h68.9a.52.52,0,0,1,.44.25.54.54,0,0,1,0,.51c-6.08,10.12,0,27.95,0,28.13a.48.48,0,0,1-.06.45A.52.52,0,0,1,681.7,354.37Zm-68.51-1H681c-1-3.33-5.22-18-.16-27.55H613.17A55.64,55.64,0,0,0,613.19,353.37Z" style="fill:#263238"></path><g style="clip-path:url(#freepik--clip-path-4--inject-91)"><path d="M612.8,325.32a55.08,55.08,0,0,0,0,28.55h68.9s-6.27-18.1,0-28.55Z" style="fill:#bababa"></path><path d="M681.7,354.37H612.8a.49.49,0,0,1-.48-.37,56.19,56.19,0,0,1,0-28.83.5.5,0,0,1,.48-.35h68.9a.52.52,0,0,1,.44.25.54.54,0,0,1,0,.51c-6.08,10.12,0,27.95,0,28.13a.48.48,0,0,1-.06.45A.52.52,0,0,1,681.7,354.37Zm-68.51-1H681c-1-3.33-5.22-18-.16-27.55H613.17A55.64,55.64,0,0,0,613.19,353.37Z" style="fill:#263238"></path><path d="M679,340.13h-30a.5.5,0,0,1-.5-.5.5.5,0,0,1,.5-.5h30a.5.5,0,0,1,.5.5A.5.5,0,0,1,679,340.13Z" style="fill:#263238"></path><path d="M659.37,337.63H635.44a.5.5,0,0,1-.5-.5.5.5,0,0,1,.5-.5h23.93a.5.5,0,0,1,.5.5A.5.5,0,0,1,659.37,337.63Z" style="fill:#263238"></path><path d="M658.82,342.36H651a.5.5,0,0,1,0-1h7.79a.5.5,0,0,1,0,1Z" style="fill:#263238"></path><path d="M636.27,331H620.41a.5.5,0,0,1-.5-.5.5.5,0,0,1,.5-.5h15.86a.5.5,0,0,1,.5.5A.5.5,0,0,1,636.27,331Z" style="fill:#263238"></path><path d="M632.66,337.35h-5a.5.5,0,0,1,0-1h5a.5.5,0,0,1,0,1Z" style="fill:#263238"></path></g><path d="M496,349V328.28a1.92,1.92,0,0,1,1.92-1.92H684.08a1.44,1.44,0,0,0,1.45-1.45h0a1.44,1.44,0,0,0-1.45-1.44H493.16a1.91,1.91,0,0,0-1.91,1.91v26.48a3.1,3.1,0,0,0,3.1,3.1H684.08a1.45,1.45,0,0,0,1.45-1.45h0a1.45,1.45,0,0,0-1.45-1.45h-185A3.1,3.1,0,0,1,496,349Z" style="fill:#263238"></path><path d="M684.08,355.46H494.35a3.6,3.6,0,0,1-3.6-3.6V325.38a2.42,2.42,0,0,1,2.41-2.42H684.08a2,2,0,1,1,0,3.9H497.92a1.43,1.43,0,0,0-1.42,1.42V349a2.6,2.6,0,0,0,2.6,2.6h185a1.95,1.95,0,0,1,0,3.9ZM493.16,324a1.42,1.42,0,0,0-1.41,1.42v26.48a2.61,2.61,0,0,0,2.6,2.6H684.08a1,1,0,0,0,0-1.9h-185a3.6,3.6,0,0,1-3.6-3.6V328.28a2.43,2.43,0,0,1,2.42-2.42H684.08a1,1,0,0,0,0-1.9Z" style="fill:#263238"></path><path d="M496.15,372.82c1-3.48,4.84-7.25.13-16.46h180.5v16.46Z" style="fill:#fff"></path><path d="M676.78,373.32H496.15a.48.48,0,0,1-.4-.2.47.47,0,0,1-.08-.44,17.12,17.12,0,0,1,.86-2.17c1.33-3,3-6.72-.69-13.92a.5.5,0,0,1,0-.49.49.49,0,0,1,.42-.24h180.5a.5.5,0,0,1,.5.5v16.46A.5.5,0,0,1,676.78,373.32Zm-179.93-1H676.28V356.86H497.09c3.42,7.17,1.65,11.14.35,14.06C497.23,371.41,497,371.87,496.85,372.32Z" style="fill:#263238"></path><path d="M563.18,360.51h-3.54a.51.51,0,0,1-.5-.5.5.5,0,0,1,.5-.5h3.54a.5.5,0,0,1,.5.5A.5.5,0,0,1,563.18,360.51Z" style="fill:#263238"></path><path d="M598.22,360.51H569.09a.5.5,0,0,1-.5-.5.5.5,0,0,1,.5-.5h29.13a.5.5,0,0,1,.5.5A.51.51,0,0,1,598.22,360.51Z" style="fill:#263238"></path><path d="M597.61,369.07h-12a.5.5,0,0,1,0-1h12a.5.5,0,0,1,0,1Z" style="fill:#263238"></path><path d="M598.79,370.09V360a1.92,1.92,0,0,0-1.92-1.92H492.7a1.45,1.45,0,0,1-1.45-1.45h0a1.45,1.45,0,0,1,1.45-1.45H683.61a1.92,1.92,0,0,1,1.92,1.92V373a3.1,3.1,0,0,1-3.1,3.1H492.7a1.45,1.45,0,0,1-1.45-1.45h0a1.45,1.45,0,0,1,1.45-1.45h103A3.1,3.1,0,0,0,598.79,370.09Z" style="fill:#fff"></path><path d="M682.43,376.59H492.7a1.95,1.95,0,0,1,0-3.9h103a2.61,2.61,0,0,0,2.6-2.6V360a1.43,1.43,0,0,0-1.42-1.42H492.7a1.95,1.95,0,0,1,0-3.9H683.61a2.43,2.43,0,0,1,2.42,2.42V373A3.61,3.61,0,0,1,682.43,376.59Zm-189.73-2.9a.95.95,0,0,0,0,1.9H682.43A2.61,2.61,0,0,0,685,373V357.11a1.43,1.43,0,0,0-1.42-1.42H492.7a.95.95,0,0,0,0,1.9H596.87a2.43,2.43,0,0,1,2.42,2.42v10.08a3.61,3.61,0,0,1-3.6,3.6Z" style="fill:#263238"></path><path d="M496.15,404.55c1-3.48,4.84-17.86.13-27.06h180.5v27.06Z" style="fill:#fff"></path><path d="M676.78,405.05H496.15a.48.48,0,0,1-.4-.2.47.47,0,0,1-.08-.44c.85-2.86,4.84-17.55.17-26.7a.48.48,0,0,1,0-.48.49.49,0,0,1,.42-.24h180.5a.5.5,0,0,1,.5.5v27.06A.5.5,0,0,1,676.78,405.05Zm-180-1H676.28V378H497.08C501.07,386.78,498.13,399.41,496.81,404.05Z" style="fill:#263238"></path><path d="M597.74,384.17h-26a.51.51,0,0,1-.5-.5.5.5,0,0,1,.5-.5h26a.5.5,0,0,1,.5.5A.5.5,0,0,1,597.74,384.17Z" style="fill:#263238"></path><path d="M563.1,392.43h-3.54a.5.5,0,0,1-.5-.5.5.5,0,0,1,.5-.5h3.54a.5.5,0,0,1,.5.5A.5.5,0,0,1,563.1,392.43Z" style="fill:#263238"></path><path d="M598.14,392.43H569a.5.5,0,0,1-.5-.5.5.5,0,0,1,.5-.5h29.13a.51.51,0,0,1,.5.5A.5.5,0,0,1,598.14,392.43Z" style="fill:#263238"></path><path d="M597.53,401h-12a.5.5,0,0,1-.5-.5.5.5,0,0,1,.5-.5h12a.5.5,0,0,1,.5.5A.5.5,0,0,1,597.53,401Z" style="fill:#263238"></path><path d="M598.79,401.82V381.13a1.92,1.92,0,0,0-1.92-1.91H492.7a1.45,1.45,0,0,1-1.45-1.45h0a1.45,1.45,0,0,1,1.45-1.45H683.61a1.92,1.92,0,0,1,1.92,1.92v26.48a3.1,3.1,0,0,1-3.1,3.1H492.7a1.45,1.45,0,0,1-1.45-1.45h0a1.45,1.45,0,0,1,1.45-1.45h103A3.1,3.1,0,0,0,598.79,401.82Z" style="fill:#263238"></path><path d="M682.43,408.32H492.7a1.95,1.95,0,0,1,0-3.9h103a2.61,2.61,0,0,0,2.6-2.6V381.13a1.42,1.42,0,0,0-1.42-1.41H492.7a2,2,0,1,1,0-3.9H683.61a2.42,2.42,0,0,1,2.42,2.42v26.48A3.61,3.61,0,0,1,682.43,408.32Zm-189.73-2.9a.95.95,0,0,0,0,1.9H682.43a2.61,2.61,0,0,0,2.6-2.6V378.24a1.43,1.43,0,0,0-1.42-1.42H492.7a1,1,0,0,0,0,1.9H596.87a2.42,2.42,0,0,1,2.42,2.41v20.69a3.61,3.61,0,0,1-3.6,3.6Z" style="fill:#263238"></path><path d="M496.15,320c1-3.48,4.84-17.86.13-27.07h180.5V320Z" style="fill:#fff"></path><path d="M676.78,320.47H496.15a.49.49,0,0,1-.4-.21.46.46,0,0,1-.08-.44c.85-2.85,4.84-17.55.17-26.69a.5.5,0,0,1,0-.49.49.49,0,0,1,.42-.24h180.5a.5.5,0,0,1,.5.5V320A.5.5,0,0,1,676.78,320.47Zm-180-1H676.28V293.4H497.08C501.07,302.2,498.13,314.83,496.81,319.47Z" style="fill:#263238"></path><path d="M598.19,299.46h-26a.5.5,0,0,1-.5-.5.51.51,0,0,1,.5-.5h26a.5.5,0,0,1,.5.5A.5.5,0,0,1,598.19,299.46Z" style="fill:#263238"></path><path d="M563.56,307.73H560a.51.51,0,0,1-.5-.5.5.5,0,0,1,.5-.5h3.55a.5.5,0,0,1,.5.5A.51.51,0,0,1,563.56,307.73Z" style="fill:#263238"></path><path d="M598.59,307.73H569.46a.5.5,0,0,1-.5-.5.5.5,0,0,1,.5-.5h29.13a.5.5,0,0,1,.5.5A.51.51,0,0,1,598.59,307.73Z" style="fill:#263238"></path><path d="M598,316.29H586a.5.5,0,0,1-.5-.5.51.51,0,0,1,.5-.5h12a.5.5,0,0,1,.5.5A.5.5,0,0,1,598,316.29Z" style="fill:#263238"></path><path d="M598.79,317.23V296.55a1.92,1.92,0,0,0-1.92-1.92H492.7a1.44,1.44,0,0,1-1.45-1.44h0a1.44,1.44,0,0,1,1.45-1.45H683.61a1.91,1.91,0,0,1,1.92,1.91v26.48a3.1,3.1,0,0,1-3.1,3.1H492.7a1.45,1.45,0,0,1-1.45-1.45h0a1.45,1.45,0,0,1,1.45-1.45h103A3.1,3.1,0,0,0,598.79,317.23Z" style="fill:#263238"></path><path d="M682.43,323.73H492.7a2,2,0,1,1,0-3.9h103a2.6,2.6,0,0,0,2.6-2.6V296.55a1.43,1.43,0,0,0-1.42-1.42H492.7a1.95,1.95,0,1,1,0-3.89H683.61a2.42,2.42,0,0,1,2.42,2.41v26.48A3.6,3.6,0,0,1,682.43,323.73Zm-189.73-2.9a1,1,0,0,0,0,1.9H682.43a2.6,2.6,0,0,0,2.6-2.6V293.65a1.42,1.42,0,0,0-1.42-1.41H492.7a.95.95,0,1,0,0,1.89H596.87a2.43,2.43,0,0,1,2.42,2.42v20.68a3.6,3.6,0,0,1-3.6,3.6Z" style="fill:#263238"></path></g><g id="freepik--kitten-1--inject-91"><path d="M331.62,439.84s16,20.61,53.63,18,49.86-38.56,51.63-48.31,8.64-26.81.44-46.09-22.82-24.6-33.68-21.94-12.63,9.75-6.43,12,13.08-1.33,25.49,6,11.52,30.8,10.63,36.12a16.85,16.85,0,0,1-3.54,8.2s-1.33-2.44-7.54-8a30.35,30.35,0,0,0-12.85-6.87s2.88-6.87-.66-16.17-8-9.75-8.65-5.76.23,12.85.23,12.85-8.65-9.31-15.29-3.55-4.44,16.84-4.44,16.84-6.42,1.11-12.63,2-7.09-.89-7.09-.89,2.66-2.88,1.77-6a5.25,5.25,0,0,0-3.1-3.77s6,1.33,8-.89-.89-4.87-5.76-5.31-11.53,1.33-13.74,6.87a20.28,20.28,0,0,0-.89,11.08s2,7.75-4.43,21.05a147.71,147.71,0,0,1-13.29,22.38Z" style="fill:#9c9c9c"></path><path d="M378.72,458.52c-31.16,0-45.79-16.34-47.35-18.2l-2-.21a.49.49,0,0,1-.41-.29.48.48,0,0,1,.06-.5A149.22,149.22,0,0,0,342.25,417c6.25-12.94,4.42-20.63,4.4-20.71a20.65,20.65,0,0,1,.9-11.39c2.25-5.62,9-7.66,14.25-7.18,3.37.3,6,1.65,6.68,3.42a2.54,2.54,0,0,1-.59,2.73c-1.37,1.52-4.28,1.56-6.3,1.36a6.77,6.77,0,0,1,1.53,2.82c.78,2.7-.86,5.18-1.58,6.09.53.36,2.12,1,6.35.42,5.15-.73,10.5-1.63,12.12-1.91-.35-2.29-1.36-11.56,4.69-16.81,5.58-4.83,12.47.38,15,2.64-.22-2.64-.62-8.53-.1-11.65.27-1.62,1.16-2.67,2.37-2.79,1.87-.18,4.75,1.94,7.23,8.46,3.05,8,1.47,14.16.86,16a31.27,31.27,0,0,1,12.53,6.85,50.89,50.89,0,0,1,7.24,7.5,17.63,17.63,0,0,0,3-7.43c.74-4.42,1.89-28.37-10.4-35.61a33.78,33.78,0,0,0-18.25-5,22.87,22.87,0,0,1-7.15-.95c-2.54-.91-4-2.7-3.88-4.8.18-3.44,4.24-6.63,10.36-8.12,10.36-2.54,25.56,1.75,34.26,22.22,6.82,16.05,3.25,30.83.88,40.61-.5,2.1-1,4.07-1.29,5.77-.08.46-8.79,45.66-52.09,48.72C383,458.45,380.83,458.52,378.72,458.52Zm-48.39-19.31,1.34.13a.53.53,0,0,1,.35.19c.15.21,16.26,20.37,53.19,17.76,42.53-3,51.09-47.45,51.18-47.9.31-1.73.79-3.72,1.3-5.82,2.47-10.23,5.86-24.25-.83-40-8.46-19.89-23.12-24.09-33.1-21.64-6.9,1.69-9.48,4.93-9.6,7.2-.08,1.66,1.09,3.05,3.22,3.81a22.09,22.09,0,0,0,6.84.89A34.62,34.62,0,0,1,423,359c12.71,7.49,11.79,31.17,10.88,36.63a17.13,17.13,0,0,1-3.68,8.46.51.51,0,0,1-.42.16.52.52,0,0,1-.38-.26s-1.41-2.46-7.43-7.84a30.25,30.25,0,0,0-12.62-6.76.51.51,0,0,1-.34-.25.5.5,0,0,1,0-.43c0-.07,2.75-6.81-.67-15.81-2.14-5.61-4.66-7.94-6.2-7.81-.75.07-1.29.79-1.48,2-.65,3.87.21,12.63.22,12.72a.49.49,0,0,1-.29.5.5.5,0,0,1-.57-.11c-.08-.09-8.39-8.89-14.6-3.51s-4.29,16.26-4.27,16.37a.48.48,0,0,1-.08.38.51.51,0,0,1-.32.21c-.07,0-6.51,1.12-12.65,2-6.38.91-7.5-.94-7.61-1.15a.52.52,0,0,1,.08-.57s2.46-2.72,1.66-5.5a4.74,4.74,0,0,0-2.76-3.43.5.5,0,0,1,.25-1c1.59.35,6,.91,7.5-.73a1.55,1.55,0,0,0,.4-1.69c-.44-1.13-2.46-2.49-5.84-2.8-4.93-.45-11.17,1.42-13.23,6.56a20.06,20.06,0,0,0-.86,10.78c.08.31,2,8.08-4.47,21.38A153.6,153.6,0,0,1,330.33,439.21Z" style="fill:#263238"></path><path d="M403.64,341.45c-10.86,2.66-12.63,9.75-6.43,12s13.08-1.33,25.49,6a15.82,15.82,0,0,1,2.66,2,38,38,0,0,0,5.2-9.41C422.41,342.05,411.93,339.42,403.64,341.45Z" style="fill:#fff"></path><path d="M425.36,361.9a.47.47,0,0,1-.34-.13,15.55,15.55,0,0,0-2.58-1.94,33.78,33.78,0,0,0-18.25-5,22.87,22.87,0,0,1-7.15-.95c-2.54-.91-4-2.7-3.88-4.8.18-3.44,4.24-6.63,10.36-8.12h0c9.73-2.39,20,1.62,27.43,10.7a.5.5,0,0,1,.07.5,38,38,0,0,1-5.27,9.54.48.48,0,0,1-.35.19Zm-21.6-20h0c-6.9,1.69-9.48,4.93-9.6,7.2-.08,1.66,1.09,3.05,3.22,3.81a22.09,22.09,0,0,0,6.84.89A34.62,34.62,0,0,1,423,359a16,16,0,0,1,2.34,1.7,37.55,37.55,0,0,0,4.7-8.59C422.8,343.46,413,339.67,403.76,341.94Z" style="fill:#263238"></path><path d="M347.31,403.05a158.35,158.35,0,0,0,19.47-3.19c9.26-2.23,16.6-6.06,26.5-6.06S415,399.22,414,407.2s-26.5,18.52-43.1,20.44-28.05-5.16-28.23-10.4S347.31,403.05,347.31,403.05Z" style="fill:#fff"></path><path d="M365.49,428.46c-9.62,0-16.74-3-20.21-6-1.93-1.66-3-3.49-3.08-5.17-.18-5.31,4.47-14.06,4.67-14.43a.47.47,0,0,1,.39-.26,160.46,160.46,0,0,0,19.4-3.18c3-.72,5.76-1.61,8.47-2.47,5.84-1.86,11.36-3.61,18.15-3.61,7.41,0,15.16,2.9,18.86,7.07a8.61,8.61,0,0,1,2.39,6.89c-1,8.72-27.49,19-43.54,20.87A48.2,48.2,0,0,1,365.49,428.46Zm-17.87-24.94c-.74,1.44-4.58,9.12-4.42,13.7.05,1.39,1,3,2.74,4.45,3.94,3.39,12.84,6.87,24.94,5.47,16.86-1.95,41.77-12.62,42.66-20a7.68,7.68,0,0,0-2.15-6.11c-3.52-4-11-6.73-18.11-6.73-6.63,0-12.08,1.73-17.85,3.56-2.72.87-5.53,1.76-8.53,2.49A161.23,161.23,0,0,1,347.62,403.52Z" style="fill:#263238"></path><path d="M347.8,421.67s4.65-19.28,13.07-21.5,20.17,5.1,17.29,9.31S366.63,411,366.63,411s10.2,19.28,6.65,26.37-12.63,5.54-12.63,5.54" style="fill:#9c9c9c"></path><path d="M362.69,443.57a13.31,13.31,0,0,1-2.12-.14.48.48,0,0,1-.41-.57.49.49,0,0,1,.57-.41c.09,0,8.77,1.4,12.1-5.27s-6.54-25.72-6.64-25.91a.52.52,0,0,1,.06-.56.51.51,0,0,1,.53-.16c.08,0,8.33,2.51,11-1.35a2.71,2.71,0,0,0-.39-3.12c-2.62-3.71-10.5-7-16.35-5.42-8,2.11-12.67,20.94-12.72,21.13a.5.5,0,1,1-1-.24c.19-.8,4.82-19.59,13.43-21.86,6.23-1.64,14.62,1.84,17.43,5.82,1.08,1.54,1.22,3.05.4,4.25-2.45,3.57-8.48,2.62-11,2,2.06,4.11,9.33,19.45,6.14,25.82C371.14,442.8,365.7,443.57,362.69,443.57Z" style="fill:#263238"></path><path d="M395.44,429.87S385,419,391.23,404.16s22.82-1.11,22.82-1.11-9.08-20.38-1.33-20.82,12.86,21.71,10.42,31.46-7.31,8.2-7.31,8.2" style="fill:#9c9c9c"></path><path d="M395.44,430.37a.48.48,0,0,1-.36-.16C395,430.1,384.51,419,390.77,404c1.59-3.81,4-6.13,7.16-6.91,5.64-1.39,12.08,2.47,14.94,4.48-1.65-4.09-5.37-14.29-3-18.2a3.34,3.34,0,0,1,2.83-1.61c1.75-.1,3.45.81,5,2.71,5.24,6.33,7.77,21.91,5.9,29.37-1,4.16-2.64,6.86-4.77,8.05a4.29,4.29,0,0,1-3.18.51.5.5,0,0,1,.31-1,3.21,3.21,0,0,0,2.42-.44c1.28-.73,3.05-2.6,4.25-7.4,1.81-7.24-.62-22.36-5.7-28.49-1.36-1.64-2.77-2.44-4.2-2.36a2.36,2.36,0,0,0-2,1.15c-2.67,4.38,3.72,18.84,3.78,19a.51.51,0,0,1-.15.6.5.5,0,0,1-.62,0c-.09-.07-8.72-7.1-15.57-5.41-2.84.7-5,2.83-6.48,6.33-6,14.37,4,25.06,4.11,25.16a.5.5,0,0,1,0,.71A.52.52,0,0,1,395.44,430.37Z" style="fill:#263238"></path><path d="M284,402.91s-1.24-17.16,1.59-17.69,10.62,5.84,11.32,7.08-8,7.78-9,9S284.33,404.51,284,402.91Z" style="fill:#9c9c9c"></path><path d="M284.64,404l-.3,0a1.17,1.17,0,0,1-.85-1s0,0,0-.07c-.3-4.13-1-17.65,2-18.22s11.15,6.1,11.85,7.32c.6,1.06-1.44,3-6.58,7.38-1.18,1-2.21,1.87-2.5,2.22C287.69,402.3,285.92,404,284.64,404Zm-.16-1.17c0,.15.08.16.1.17.49.12,1.95-.9,2.91-2a34.86,34.86,0,0,1,2.62-2.33c2-1.73,6.29-5.32,6.33-6.2-.66-1.11-8.27-7.24-10.78-6.76C284.19,386,283.9,394.81,284.48,402.84Z" style="fill:#263238"></path><path d="M331.35,391a27.32,27.32,0,0,0-18.63-4.82c-10.74,1.31-26.09,7.67-30.47,17.75s-3.51,14.69-3.51,14.69-14,11.83-17.31,14.24-9.65,3.73,2.19,9.87,26.74,2.41,26.74,2.41l7.23-4.17a19.9,19.9,0,0,0,15.78,6.58c9.87-.66,20.17-3.95,27.18-14.25a50.09,50.09,0,0,0,8.33-36.38C346.69,383.74,335.29,388.34,331.35,391Z" style="fill:#9c9c9c"></path><path d="M312.09,448.06a20.29,20.29,0,0,1-14.6-6.48l-6.88,4-.13,0c-.15,0-15.22,3.7-27.09-2.45-4.89-2.53-7.09-4.43-7.14-6.16,0-1.56,1.62-2.54,3.23-3.5.57-.34,1.15-.69,1.65-1.05,3-2.21,15.32-12.57,17.08-14.05-.12-1.19-.25-5.87,3.58-14.68,4.26-9.79,19.08-16.61,30.87-18.05a27.67,27.67,0,0,1,18.7,4.71c2.78-1.76,8.24-4,12.52-2.17,2.9,1.26,4.75,4.16,5.49,8.62A50.4,50.4,0,0,1,341,433.55c-6.06,8.9-15.07,13.63-27.55,14.47C313,448.05,312.52,448.06,312.09,448.06Zm-14.5-7.62a.53.53,0,0,1,.39.18c.06.08,5.89,7,15.36,6.4,12.16-.81,20.92-5.4,26.8-14a49.47,49.47,0,0,0,8.25-36c-.69-4.1-2.34-6.74-4.91-7.86-4-1.75-9.35.61-11.86,2.28a.5.5,0,0,1-.58,0,27.17,27.17,0,0,0-18.26-4.72c-11.51,1.41-26,8-30.07,17.46-4.25,9.77-3.48,14.35-3.48,14.39a.51.51,0,0,1-.16.48c-.58.48-14.08,11.87-17.35,14.27-.53.39-1.14.75-1.73,1.1-1.36.81-2.77,1.64-2.74,2.61,0,1.27,2.26,3.05,6.6,5.3,11.13,5.77,25.24,2.64,26.32,2.39l7.17-4.13A.47.47,0,0,1,297.59,440.44Z" style="fill:#263238"></path><path d="M303.77,405.07a.5.5,0,0,1-.5-.5c0-7.38,2.78-7.59,3.1-7.59a.5.5,0,0,1,0,1c-.07,0-2.12.31-2.12,6.59A.51.51,0,0,1,303.77,405.07Z" style="fill:#263238"></path><path d="M319.82,406.16c0,1.36-1.46,2.46-3.25,2.46s-3.26-1.1-3.26-2.46,1.46-2.46,3.26-2.46S319.82,404.8,319.82,406.16Z" style="fill:#263238"></path><path d="M328.38,392.53c-.19,1.09-1.67,1.76-3.31,1.48s-2.83-1.39-2.64-2.48,1.66-1.77,3.31-1.49S328.56,391.43,328.38,392.53Z" style="fill:#263238"></path><path d="M335.44,389.45a.5.5,0,0,1-.5-.5v-5.21a.5.5,0,0,1,1,0V389A.5.5,0,0,1,335.44,389.45Z" style="fill:#263238"></path><path d="M339.2,388.15a.5.5,0,0,1-.39-.82l2.31-2.89a.52.52,0,0,1,.71-.08.51.51,0,0,1,.07.71L339.59,388A.51.51,0,0,1,339.2,388.15Z" style="fill:#263238"></path><path d="M342.81,388.87a.51.51,0,0,1-.32-.12.49.49,0,0,1-.06-.7l2.32-2.75a.5.5,0,0,1,.76.64l-2.31,2.75A.5.5,0,0,1,342.81,388.87Z" style="fill:#263238"></path><path d="M290.36,445.11l7.23-4.17s2.67-8.66.19-13.43-7.61-6.73-13.27-4.78A131.26,131.26,0,0,0,267,430.34c-3.36,1.94-7.6,4.06-8.66,5.3a3.18,3.18,0,0,1-1.4.55c-.7,1.42.52,3.31,6.69,6.51C275.46,448.83,290.36,445.11,290.36,445.11Z" style="fill:#d6d6d6"></path><path d="M279.89,446.71a36.17,36.17,0,0,1-16.5-3.57c-5.83-3-7.9-5.17-6.9-7.17a.47.47,0,0,1,.32-.26,3.12,3.12,0,0,0,1.14-.4c.84-1,3.37-2.38,6.05-3.86.92-.52,1.87-1,2.74-1.55a132.87,132.87,0,0,1,17.61-7.64c5.81-2,11.26,0,13.87,5s0,13.46-.15,13.82a.55.55,0,0,1-.23.29l-7.23,4.16-.13,0A48.9,48.9,0,0,1,279.89,446.71Zm-22.59-10.1c-.37,1.32,1.78,3.17,6.55,5.64,11.13,5.77,25.24,2.64,26.32,2.39l7-4c.36-1.27,2.32-8.71.16-12.87-2.37-4.59-7.34-6.37-12.66-4.54a129.36,129.36,0,0,0-17.42,7.57c-.89.51-1.83,1-2.77,1.55-2.48,1.38-5.05,2.8-5.77,3.65A2.85,2.85,0,0,1,257.3,436.61Zm33.06,8.5h0Z" style="fill:#263238"></path><path d="M348.88,396.89c-.94-5.62-3.55-8-6.55-8.67a22.17,22.17,0,0,0-13.15,9.07s-13.29,14.19-15.51,25.93c-1.48,7.84,3.77,26.11,21.13,16.47a31.55,31.55,0,0,0,5.75-6.42A50.09,50.09,0,0,0,348.88,396.89Z" style="fill:#fff"></path><path d="M325.77,442.91a10.67,10.67,0,0,1-6.37-2c-5.5-4-7.14-12.88-6.22-17.78,2.22-11.75,15.09-25.6,15.64-26.18a22.5,22.5,0,0,1,13.38-9.21.65.65,0,0,1,.24,0c3.74.85,6.07,3.9,6.93,9.08h0A50.4,50.4,0,0,1,341,433.55a32,32,0,0,1-5.83,6.52A19.48,19.48,0,0,1,325.77,442.91Zm16.57-54.17a21.62,21.62,0,0,0-12.74,8.83c-.18.21-13.27,14.28-15.44,25.74-.87,4.65.66,13.06,5.83,16.79,3.76,2.72,8.67,2.43,14.57-.85a31.9,31.9,0,0,0,5.58-6.26,49.47,49.47,0,0,0,8.25-36C347.61,392.29,345.57,389.52,342.34,388.74Z" style="fill:#263238"></path><path d="M332.22,392.72s-5.26,3.07-4.6,5.48,5.26,2.19,6.79-.44S334.41,391,332.22,392.72Z" style="fill:#37474F"></path><path d="M330.4,400.38a4.26,4.26,0,0,1-.63,0,2.89,2.89,0,0,1-2.63-2c-.73-2.66,4.1-5.61,4.8-6a1.81,1.81,0,0,1,2.45-.06c1.18,1,1.63,3.75.46,5.77A5.19,5.19,0,0,1,330.4,400.38Zm2.85-7.58a1.15,1.15,0,0,0-.71.31l-.07.05c-1.27.74-4.82,3.25-4.37,4.91a2,2,0,0,0,1.8,1.28,4.25,4.25,0,0,0,4.08-1.84c.9-1.54.62-3.76-.24-4.5A.77.77,0,0,0,333.25,392.8Zm-1-.08h0Z" style="fill:#263238"></path><path d="M333.46,407.56a7.2,7.2,0,0,1-2-.33.5.5,0,0,1,.29-1,4,4,0,0,0,3.41-.18,4.19,4.19,0,0,0,1.43-3.32c.19-2.75-2.39-4.58-2.42-4.59a.51.51,0,0,1-.13-.7.5.5,0,0,1,.7-.13c.13.09,3.08,2.18,2.84,5.49-.14,2-.76,3.32-1.85,4.08A3.88,3.88,0,0,1,333.46,407.56Z" style="fill:#263238"></path><path d="M337,403.31a.5.5,0,0,1-.49-.42.51.51,0,0,1,.41-.58,5.72,5.72,0,0,0,3.43-2,3.22,3.22,0,0,0,.33-2.65.51.51,0,0,1,.37-.61.49.49,0,0,1,.6.36,4.2,4.2,0,0,1-.47,3.45,6.68,6.68,0,0,1-4.09,2.43Z" style="fill:#263238"></path><path d="M336.31,406.23s-.36,4.47,2.05,2.49.88-6.35.88-6.35l-1.84.79Z" style="fill:#263238"></path><path d="M337.3,409.73a1.14,1.14,0,0,1-.54-.14c-1.12-.58-1-2.93-.95-3.4a.35.35,0,0,1,0-.13l1.09-3.06a.51.51,0,0,1,.27-.29l1.84-.8a.47.47,0,0,1,.4,0,.51.51,0,0,1,.27.29c.07.19,1.62,4.74-1,6.91A2.32,2.32,0,0,1,337.3,409.73Zm-.5-3.39c-.07,1,.09,2.19.42,2.37.11.05.38,0,.82-.37,1.66-1.36,1.17-4.13.87-5.29l-1.11.49Z" style="fill:#263238"></path><path d="M319.82,415.48a.46.46,0,0,1-.33-.13.48.48,0,0,1,0-.7l5.64-6.36a.5.5,0,1,1,.74.66l-5.64,6.36A.48.48,0,0,1,319.82,415.48Z" style="fill:#263238"></path><path d="M325,416.78l-.18,0a.5.5,0,0,1-.29-.64l2.17-5.79a.5.5,0,0,1,.93.35l-2.17,5.79A.48.48,0,0,1,325,416.78Z" style="fill:#263238"></path><path d="M330.23,416.93a.5.5,0,0,1-.49-.43l-.72-4.77a.5.5,0,1,1,1-.15l.73,4.77a.51.51,0,0,1-.42.57Z" style="fill:#263238"></path></g></svg>
